<svg width="18" height="18" viewBox="0 0 18 18" fill="none" xmlns="http://www.w3.org/2000/svg">
<path d="M16.4138 10.7269C15.9615 9.93736 15.841 9.00064 16.0787 8.12236C16.3164 7.24409 16.8929 6.49602 17.6816 6.04237L15.9131 2.979C15.3915 3.28469 14.7976 3.44548 14.193 3.44475C13.7421 3.44327 13.2959 3.353 12.8799 3.17909C12.4639 3.00518 12.0862 2.75103 11.7684 2.43115C11.4507 2.11128 11.199 1.73194 11.0278 1.3148C10.8566 0.897665 10.7693 0.450894 10.7708 0L7.23263 0C7.23774 0.606137 7.08 1.20253 6.77588 1.72687C5.83201 3.36262 3.73163 3.91838 2.08463 2.97113L0.316132 6.0345C0.842227 6.33263 1.27856 6.76663 1.57951 7.29112C2.031 8.07928 2.1519 9.01419 1.91577 9.89127C1.67963 10.7684 1.10568 11.5162 0.319507 11.9711L2.08801 15.0345C2.59201 14.7409 3.17588 14.5733 3.80026 14.5733C4.70776 14.5762 5.57718 14.9383 6.21846 15.5805C6.85974 16.2226 7.22073 17.0925 7.22251 18H10.7606C10.7589 17.4 10.9165 16.8103 11.2174 16.2911C11.6742 15.506 12.4235 14.9337 13.3012 14.6997C14.179 14.4657 15.1137 14.5889 15.9008 15.0424L17.6693 11.979C17.1469 11.6806 16.7135 11.2484 16.4138 10.7269ZM9.00001 12.645C8.03329 12.645 7.10617 12.261 6.4226 11.5774C5.73903 10.8938 5.35501 9.96671 5.35501 9C5.35501 8.03329 5.73903 7.10617 6.4226 6.4226C7.10617 5.73903 8.03329 5.355 9.00001 5.355C9.96672 5.355 10.8938 5.73903 11.5774 6.4226C12.261 7.10617 12.645 8.03329 12.645 9C12.645 9.96671 12.261 10.8938 11.5774 11.5774C10.8938 12.261 9.96672 12.645 9.00001 12.645Z" fill="white"/>
</svg>
