<svg width="16" height="14" viewBox="0 0 16 14" fill="none" xmlns="http://www.w3.org/2000/svg">
<path d="M15.2 0C15.4122 0 15.6157 0.0819442 15.7657 0.227806C15.9157 0.373667 16 0.571498 16 0.777778V5C16 5.20628 15.9157 5.40411 15.7657 5.54997C15.6157 5.69583 15.4122 5.77778 15.2 5.77778H13.5992L13.6 13.2222C13.6 13.4285 13.5157 13.6263 13.3657 13.7722C13.2157 13.9181 13.0122 14 12.8 14H3.2C2.98783 14 2.78434 13.9181 2.63431 13.7722C2.48429 13.6263 2.4 13.4285 2.4 13.2222L2.3992 5.777L0.8 5.77778C0.587827 5.77778 0.384344 5.69583 0.234315 5.54997C0.0842854 5.40411 0 5.20628 0 5V0.777778C0 0.571498 0.0842854 0.373667 0.234315 0.227806C0.384344 0.0819442 0.587827 0 0.8 0H5.6C5.6 0.618838 5.85286 1.21233 6.30294 1.64992C6.75303 2.0875 7.36348 2.33333 8 2.33333C8.63652 2.33333 9.24697 2.0875 9.69706 1.64992C10.1471 1.21233 10.4 0.618838 10.4 0H15.2Z" fill="white"/>
</svg>
