<svg width="19" height="16" viewBox="0 0 19 16" fill="none" xmlns="http://www.w3.org/2000/svg">
<path d="M17.3636 6.29414L16.9187 5.19648L16.1298 3.25C15.4525 1.5793 13.8371 0.5 12.0135 0.5H6.98646C5.16325 0.5 3.54746 1.5793 2.87019 3.25L2.08129 5.19648L1.63637 6.29414C0.681625 6.65234 0 7.55703 0 8.625V10.5C0 11.1297 0.243833 11.698 0.633333 12.1379V14.25C0.633333 14.9402 1.20056 15.5 1.9 15.5H3.16667C3.8661 15.5 4.43333 14.9402 4.43333 14.25V13H14.5667V14.25C14.5667 14.9402 15.1339 15.5 15.8333 15.5H17.1C17.7994 15.5 18.3667 14.9402 18.3667 14.25V12.1379C18.7562 11.6984 19 11.1301 19 10.5V8.625C19 7.55703 18.3184 6.65234 17.3636 6.29414ZM5.22223 4.17852C5.51079 3.4668 6.20944 3 6.98646 3H12.0135C12.7906 3 13.4892 3.4668 13.7778 4.17852L14.5667 6.125H4.43333L5.22223 4.17852ZM3.16667 10.4922C2.40667 10.4922 1.9 9.99375 1.9 9.24609C1.9 8.49844 2.40667 8 3.16667 8C3.92667 8 5.06667 9.12148 5.06667 9.86914C5.06667 10.6168 3.92667 10.4922 3.16667 10.4922ZM15.8333 10.4922C15.0733 10.4922 13.9333 10.6168 13.9333 9.86914C13.9333 9.12148 15.0733 8 15.8333 8C16.5933 8 17.1 8.49844 17.1 9.24609C17.1 9.99375 16.5933 10.4922 15.8333 10.4922Z" fill="white"/>
</svg>
