<svg width="25" height="17" viewBox="0 0 25 17" fill="none" xmlns="http://www.w3.org/2000/svg">
<path d="M0.688568 14.6767V2.3349C0.688568 1.43609 1.55183 0.590942 2.74482 0.590942H21.9167C23.1097 0.590942 23.973 1.43609 23.973 2.3349V14.6767C23.973 15.5755 23.1097 16.4206 21.9167 16.4206H2.74482C1.55183 16.4206 0.688568 15.5755 0.688568 14.6767Z" stroke="#8D5963"/>
<path d="M0.688568 14.6767V2.3349C0.688568 1.43609 1.55183 0.590942 2.74482 0.590942H21.9167C23.1097 0.590942 23.973 1.43609 23.973 2.3349V14.6767C23.973 15.5755 23.1097 16.4206 21.9167 16.4206H2.74482C1.55183 16.4206 0.688568 15.5755 0.688568 14.6767Z" stroke="url(#paint0_linear_219_282)"/>
<defs>
<linearGradient id="paint0_linear_219_282" x1="12.3308" y1="0.0909424" x2="12.3308" y2="16.9206" gradientUnits="userSpaceOnUse">
<stop stop-color="#4D365F"/>
<stop offset="1" stop-color="#6B517E"/>
</linearGradient>
</defs>
</svg>
