<svg width="89" height="89" viewBox="0 0 89 89" fill="none" xmlns="http://www.w3.org/2000/svg">
<path d="M84.7139 35.1703C86.2941 34.8036 87.8825 35.7866 88.1435 37.3877C89.6099 46.3852 88.2623 55.6435 84.2459 63.8805C79.7991 72.9999 72.3516 80.3128 63.1526 84.5926C53.9536 88.8723 43.5627 89.8585 33.7228 87.3857C23.8829 84.9129 15.1927 79.1316 9.10976 71.0115C3.02684 62.8914 -0.0787117 52.9265 0.314027 42.7883C0.706766 32.6501 4.57391 22.9553 11.2668 15.3301C17.9596 7.70492 27.0711 2.61322 37.0728 0.909077C46.1066 -0.630159 55.3704 0.678857 63.593 4.61523C65.0562 5.31568 65.553 7.11639 64.757 8.52984C63.961 9.94328 62.1739 10.4326 60.7037 9.74708C53.6619 6.46367 45.7642 5.38723 38.0595 6.70001C29.3865 8.17776 21.4855 12.593 15.6817 19.2052C9.87798 25.8174 6.52458 34.2243 6.18402 43.0157C5.84345 51.8071 8.53644 60.4482 13.8113 67.4896C19.0861 74.5309 26.6219 79.5442 35.1545 81.6885C43.6872 83.8327 52.6977 82.9776 60.6747 79.2664C68.6516 75.5552 75.1097 69.2138 78.9657 61.3058C82.3913 54.2807 83.5781 46.3989 82.4064 38.7181C82.1618 37.1145 83.1337 35.5369 84.7139 35.1703Z" fill="url(#paint0_angular_166_136)"/>
<defs>
<radialGradient id="paint0_angular_166_136" cx="0" cy="0" r="1" gradientUnits="userSpaceOnUse" gradientTransform="translate(44.5 44.5) rotate(127.875) scale(39.9062)">
<stop stop-color="#4D4BB8" stop-opacity="0.512628"/>
<stop offset="0.1875" stop-color="#4D4BB8"/>
<stop offset="0.489583" stop-color="#F35736"/>
<stop offset="0.552083" stop-opacity="0"/>
</radialGradient>
</defs>
</svg>
