<svg width="2" height="7" viewBox="0 0 2 7" fill="none" xmlns="http://www.w3.org/2000/svg">
<path opacity="0.2" d="M1.48502 0.419007C1.01402 0.216007 0.813021 0.614006 0.717021 0.991006C0.614021 1.39701 0.550021 1.81301 0.493021 2.22801C0.312021 3.55801 0.250021 4.91001 0.393021 6.24701C0.418021 6.48401 0.578021 6.68801 0.834021 6.68801C1.05302 6.68801 1.30002 6.48501 1.27502 6.24701C1.14902 5.06401 1.18202 3.86501 1.31702 2.68401C1.36002 2.31401 1.41902 1.91301 1.50302 1.50801C1.53002 1.37901 1.55902 1.24901 1.59502 1.12201C1.60702 1.08101 1.62302 1.04101 1.63402 1.00101C1.65402 0.926006 1.58202 1.10501 1.61102 1.05601C1.61402 1.05101 1.61602 1.04601 1.61902 1.04101C1.54302 1.16601 1.42302 1.23301 1.25902 1.24201C1.18502 1.22201 1.11102 1.20201 1.03602 1.18201C1.03702 1.18201 1.03802 1.18301 1.03902 1.18301C1.25702 1.27701 1.51202 1.24801 1.64202 1.02501C1.75302 0.836006 1.70502 0.514006 1.48502 0.419007Z" fill="white"/>
</svg>
