<svg width="31" height="22" viewBox="0 0 31 22" fill="none" xmlns="http://www.w3.org/2000/svg">
<path d="M5.721 5.78399L0.933001 5.79999C0.503001 5.77699 2.273 17.587 2.273 17.587C2.273 17.587 22.068 21.689 23.544 21.354C25.019 21.018 18.87 17.936 18.87 17.936C18.87 17.936 25.281 19.66 27.526 19.016C29.313 18.503 20.654 15.198 20.654 15.198C24.423 15.657 30.486 16.829 30.803 15.626C31.201 14.12 20.398 12.057 20.398 12.057C20.398 12.057 27.631 12.854 28.403 11.548C29.175 10.242 14.617 6.91499 14.617 6.91499C14.617 6.91499 17.83 5.13099 18.511 1.73399C18.513 1.72499 18.514 1.71699 18.516 1.70799C18.714 0.601993 17.296 -0.0560066 16.523 0.734993C13.408 3.92699 5.721 5.78399 5.721 5.78399Z" fill="#FCC0BF"/>
</svg>
