<svg width="38" height="24" viewBox="0 0 38 24" fill="none" xmlns="http://www.w3.org/2000/svg">
<path d="M6.537 9.638L0.967005 10.722C0.462005 10.792 5.74601 23.072 5.74601 23.072C5.74601 23.072 28.753 24.175 30.403 23.463C32.053 22.751 24.278 20.597 24.278 20.597C24.278 20.597 32.087 21.14 34.571 19.904C36.549 18.92 25.807 17.071 25.807 17.071C30.287 16.757 37.579 16.746 37.708 15.301C37.87 13.491 24.881 13.539 24.881 13.539C24.881 13.539 33.461 12.839 34.098 11.175C34.735 9.511 17.122 8.949 17.122 8.949C17.122 8.949 20.505 6.195 20.618 2.161C20.618 2.151 20.618 2.14 20.619 2.13C20.628 0.822999 18.845 0.384999 18.104 1.462C15.114 5.804 6.537 9.638 6.537 9.638Z" fill="#FCC0BF"/>
</svg>
