<svg width="210" height="210" viewBox="0 0 210 210" fill="none" xmlns="http://www.w3.org/2000/svg">
<path d="M209.928 104.83C209.928 162.705 163.009 209.624 105.134 209.624C86.1929 209.624 68.4279 204.6 53.0959 195.81C43.7739 190.467 35.3509 183.731 28.1109 175.888C26.2229 173.845 24.4149 171.727 22.6979 169.536C20.8209 167.149 19.0469 164.677 17.3799 162.13C14.6959 158.031 12.2939 153.732 10.1989 149.26C7.74194 144.017 5.70494 138.54 4.13494 132.868C1.66094 123.944 0.340942 114.54 0.340942 104.829V104.692C0.416942 46.879 47.3049 0.0349731 105.135 0.0349731C121.249 0.0349731 136.515 3.67197 150.154 10.17C156.954 13.412 163.351 17.363 169.249 21.933C174.766 26.206 179.846 31.017 184.408 36.288C186.647 38.877 188.76 41.573 190.735 44.369C193.338 48.042 195.706 51.89 197.821 55.891C200.99 61.876 203.593 68.203 205.566 74.804C208.051 83.14 209.531 91.913 209.859 100.977C209.906 102.255 209.928 103.541 209.928 104.83Z" fill="#FDBD28"/>
</svg>
