<svg width="104" height="57" viewBox="0 0 104 57" fill="none" xmlns="http://www.w3.org/2000/svg">
<path d="M103.367 42.076L102.492 53.146C102.492 53.146 100.756 53.613 97.704 54.179C83.956 56.762 43.395 61.568 13.246 36.437C12.992 36.229 12.746 36.02 12.498 35.802L12.496 35.794C10.863 34.413 9.27201 32.944 7.72101 31.37C7.67501 31.319 7.62101 31.269 7.57501 31.218C7.47401 31.117 7.38401 31.023 7.28401 30.922C7.01701 30.656 6.74701 30.373 6.48701 30.096C5.58201 29.136 4.68901 28.147 3.82401 27.126C3.60901 26.901 3.40801 26.655 3.19901 26.412C2.59401 25.667 1.97001 24.918 1.38501 24.143C1.38501 24.143 0.19701 20.306 1.04601 15.737C1.40501 13.781 2.14501 11.682 3.50301 9.696C3.87301 9.136 4.30001 8.599 4.78001 8.068C4.84801 7.975 4.92901 7.905 4.99801 7.82C5.48901 7.295 6.01001 6.791 6.62401 6.31C6.77201 6.182 6.93601 6.051 7.09301 5.93C8.50101 4.868 10.191 3.904 12.232 3.108C16.25 1.54 21.608 0.560001 28.763 0.585001C28.763 0.585001 29.086 1.032 29.707 1.851C30.478 2.84 31.716 4.376 33.379 6.266C43.414 17.736 69.061 42.458 103.367 42.076Z" fill="#FCC0BF"/>
</svg>
