<svg width="121" height="167" viewBox="0 0 121 167" fill="none" xmlns="http://www.w3.org/2000/svg">
<path d="M0.457029 161.907C0.135029 170.421 106.414 166.44 120.118 157.857C120.095 155.084 120.049 152.346 120.003 149.665C119.968 148.1 119.934 146.547 119.899 145.017C119.761 139.678 119.577 134.524 119.347 129.553C119.278 127.988 119.198 126.446 119.117 124.916C118.887 120.693 118.634 116.62 118.346 112.674C118.231 111.098 118.116 109.556 117.989 108.037C117.678 104.114 117.333 100.328 116.954 96.681C116.793 95.105 116.632 93.563 116.459 92.044C115.987 87.741 115.47 83.622 114.917 79.698C114.698 78.122 114.468 76.58 114.238 75.061C113.812 72.196 113.364 69.435 112.892 66.777C112.627 65.201 112.339 63.647 112.064 62.14C111.604 59.724 111.132 57.399 110.66 55.167C110.395 53.913 110.131 52.693 109.855 51.497C109.786 51.163 109.706 50.841 109.636 50.519C108.865 47.159 108.071 44.018 107.277 41.084C106.84 39.473 106.403 37.931 105.965 36.447C104.849 32.696 103.744 29.336 102.651 26.31C102.053 24.665 101.466 23.123 100.879 21.673C99.36 17.888 97.899 14.769 96.576 12.227C95.621 10.386 94.735 8.85601 93.953 7.57901C91.629 3.84001 90.133 2.39001 90.133 2.39001C90.133 2.39001 90.087 2.36701 89.983 2.32101C89.373 2.04501 86.807 1.07801 80.077 0.756013H80.066L79.41 0.721013C79.398 0.733013 79.375 0.733013 79.341 0.721013C76.879 0.629013 73.887 0.617013 70.263 0.756013C64.28 0.975013 56.605 1.59601 46.791 2.87301C42.292 3.44801 37.344 4.17301 31.914 5.05901C30.717 5.70301 29.567 6.55501 28.462 7.57901C27.081 8.85601 25.758 10.409 24.516 12.227C22.686 14.873 20.995 18.049 19.43 21.673C18.797 23.146 18.188 24.699 17.589 26.31C16.427 29.451 15.346 32.857 14.345 36.447C13.919 37.954 13.516 39.508 13.125 41.084C12.354 44.122 11.641 47.274 10.962 50.519C10.639 52.049 10.341 53.591 10.042 55.167C9.74303 56.743 9.45503 58.331 9.16703 59.942C9.04103 60.667 8.91403 61.403 8.78703 62.14C8.53403 63.67 8.28103 65.223 8.02803 66.777C7.61303 69.515 7.21103 72.288 6.83103 75.061C6.64703 76.384 6.47403 77.719 6.30203 79.053C6.27903 79.272 6.24403 79.479 6.22103 79.697C5.69203 83.816 5.22003 87.935 4.79503 92.043C4.69103 93.067 4.57603 94.091 4.48403 95.115C4.42603 95.633 4.38103 96.162 4.33503 96.68C3.95503 100.511 3.62103 104.308 3.32203 108.036C3.18403 109.601 3.06903 111.143 2.95403 112.673C2.63103 116.896 2.35603 120.992 2.11403 124.915C2.01003 126.491 1.91903 128.045 1.83803 129.552C1.51603 135.224 1.27503 140.448 1.07903 145.016C1.01003 146.65 0.952029 148.203 0.895029 149.664C0.675029 155.257 0.549029 159.502 0.457029 161.907Z" fill="#FDBD28"/>
</svg>
