<svg width="320" height="188" viewBox="0 0 320 188" fill="none" xmlns="http://www.w3.org/2000/svg">
<path d="M319.728 23.068V175.466C319.728 180.436 315.154 184.155 310.292 183.127C284.128 177.595 269.439 168.889 223.237 168.889C155.514 168.889 155.514 187.597 87.781 187.597C45.181 187.597 29.371 180.196 6.64999 174.707C3.13399 173.858 0.653992 170.715 0.653992 167.097V14.861C0.653992 9.74401 5.48399 6.00601 10.44 7.28201C31.243 12.637 47.587 19.226 87.782 19.226C155.515 19.226 155.515 0.518005 223.238 0.518005C271.234 0.518005 285.222 9.913 313.395 15.385C317.072 16.099 319.728 19.321 319.728 23.068Z" fill="#13A173"/>
</svg>
