<svg width="33" height="4" viewBox="0 0 33 4" fill="none" xmlns="http://www.w3.org/2000/svg">
<path opacity="0.2" d="M1.20297 3.35901C3.13197 2.75901 5.06497 2.15701 7.04697 1.75301C8.97597 1.35901 10.938 1.16101 12.905 1.09401C16.92 0.956012 20.927 1.35201 24.919 1.73201C27.172 1.94601 29.425 2.15701 31.686 2.27101C31.924 2.28301 32.127 2.06001 32.127 1.83001C32.127 1.58101 31.925 1.40101 31.686 1.38901C27.639 1.18501 23.616 0.670012 19.575 0.383012C15.566 0.0980122 11.517 0.0510122 7.54697 0.763012C5.30997 1.16401 3.13597 1.83601 0.968973 2.51001C0.428973 2.67701 0.658973 3.52901 1.20297 3.35901Z" fill="white"/>
</svg>
