<svg width="37" height="13" viewBox="0 0 37 13" fill="none" xmlns="http://www.w3.org/2000/svg">
<path opacity="0.2" d="M0.969993 11.825C2.10599 9.856 3.59899 8.121 5.33699 6.658C7.05699 5.21 9.01399 4.044 11.077 3.154C13.347 2.174 15.79 1.557 18.243 1.226C21.005 0.852997 23.811 0.842997 26.588 1.045C29.414 1.251 32.224 1.672 35 2.235C35.354 2.307 35.708 2.381 36.061 2.458C36.294 2.509 36.538 2.388 36.604 2.15C36.665 1.93 36.53 1.658 36.296 1.607C33.439 0.984997 30.542 0.515997 27.629 0.247997C24.807 -0.0120026 21.958 -0.0620026 19.137 0.235997C16.517 0.512997 13.921 1.077 11.466 2.046C9.28199 2.909 7.22799 4.057 5.37299 5.5C3.52899 6.935 1.91499 8.67 0.656993 10.641C0.501993 10.883 0.352993 11.13 0.209993 11.379C-0.0760069 11.872 0.685993 12.317 0.969993 11.825Z" fill="white"/>
</svg>
