<svg width="285" height="152" viewBox="0 0 285 152" fill="none" xmlns="http://www.w3.org/2000/svg">
<path opacity="0.31" d="M284.06 37.072V121.279C283.883 121.269 283.717 121.269 283.54 121.269C272.773 121.269 263.772 128.898 261.672 139.042C247.755 135.789 231.012 133.222 205.236 133.222C168.984 133.222 150.588 138.304 132.805 143.21C116.581 147.7 101.251 151.93 69.78 151.93C47.902 151.93 33.83 149.883 21.825 147.139C22.709 144.748 23.187 142.161 23.187 139.458C23.187 127.121 13.178 117.112 0.840984 117.112C0.663984 117.112 0.497984 117.112 0.320984 117.122V32.915C10.964 32.676 19.767 24.985 21.731 14.862C34.037 17.221 48.961 18.895 69.779 18.895C106.041 18.895 124.437 13.813 142.221 8.90701C158.445 4.41701 173.775 0.187012 205.235 0.187012C232.943 0.187012 248.149 3.47101 262.46 7.31701C261.639 9.63501 261.192 12.14 261.192 14.738C261.192 27.075 271.201 37.084 283.538 37.084C283.717 37.082 283.883 37.082 284.06 37.072Z" fill="white"/>
</svg>
