<svg width="191" height="170" viewBox="0 0 191 170" fill="none" xmlns="http://www.w3.org/2000/svg">
<path opacity="0.24" d="M190.735 44.368L22.697 169.535C20.82 167.148 19.046 164.676 17.379 162.129C14.695 158.03 12.293 153.731 10.198 149.259C7.74097 144.016 5.70397 138.539 4.13397 132.867C1.65997 123.943 0.339966 114.539 0.339966 104.828V104.691C0.415966 46.878 47.304 0.0339966 105.134 0.0339966C121.248 0.0339966 136.514 3.671 150.153 10.169C156.953 13.411 163.35 17.362 169.248 21.932C174.765 26.205 179.845 31.016 184.407 36.287C186.647 38.877 188.76 41.572 190.735 44.368Z" fill="white"/>
</svg>
