<svg width="50" height="87" viewBox="0 0 50 87" fill="none" xmlns="http://www.w3.org/2000/svg">
<path fill-rule="evenodd" clip-rule="evenodd" d="M30.066 78.511V87.001H23.313V78.608C12.412 77.836 4.30804 72.241 0.837036 62.98L14.149 55.263C16.174 59.893 18.972 62.595 23.313 63.366V50.054C23.12 49.9575 22.903 49.8853 22.686 49.813C22.469 49.7408 22.252 49.6685 22.059 49.572C13.666 46.196 3.63404 41.469 3.63404 28.542C3.63404 16.002 13.087 9.53803 23.313 8.57403V0.18103H30.066V8.76603C38.362 9.82803 45.308 14.265 49.07 22.754L36.047 30.374C34.793 26.998 32.863 25.069 30.066 24.104V37.127C30.851 37.4608 31.6621 37.7912 32.4876 38.1275C40.4887 41.3869 49.842 45.1972 49.842 57.964C49.842 70.023 41.546 77.161 30.066 78.511ZM23.313 33.944V23.815C20.515 24.49 19.069 26.323 19.069 28.638C19.069 30.472 19.937 32.015 23.313 33.944ZM30.066 52.852C32.96 54.298 34.407 55.746 34.407 58.157C34.407 60.183 33.345 62.306 30.066 63.174V52.852Z" fill="white"/>
</svg>
