<svg width="80" height="91" viewBox="0 0 80 91" fill="none" xmlns="http://www.w3.org/2000/svg">
<path fill-rule="evenodd" clip-rule="evenodd" d="M44.147 1.751L75.659 19.945C77.961 21.274 79.846 24.538 79.846 27.199V63.585C79.846 66.247 77.961 69.511 75.659 70.84L44.147 89.034C41.842 90.363 38.073 90.363 35.77 89.034L4.25602 70.84C1.95202 69.512 0.0670166 66.247 0.0670166 63.585V27.199C0.0670166 24.538 1.95202 21.274 4.25502 19.945L35.771 1.751C38.073 0.419997 41.842 0.419997 44.147 1.751ZM28.331 45.052L49.349 70.588V70.587H58.782L42.874 51.654C51.511 50.141 55.902 43.374 55.902 36.249C55.902 28.257 50.43 20.194 39.49 20.194H22.722L30.065 27.537H39.49C45.609 27.537 48.63 31.93 48.63 36.25C48.63 40.64 45.609 45.031 39.49 45.031L28.331 45.052ZM28.331 45.052V29.021L21.132 21.821V48.489L28.331 55.782V45.052Z" fill="#FA7701"/>
</svg>
