<svg width="60" height="105" viewBox="0 0 60 105" fill="none" xmlns="http://www.w3.org/2000/svg">
<path fill-rule="evenodd" clip-rule="evenodd" d="M57.599 59.892C54.371 52.988 47.705 49.617 41.258 46.913C40.4315 46.5672 39.6084 46.232 38.7966 45.9014L38.7965 45.9013C37.7724 45.4842 36.7662 45.0744 35.794 44.66V28.986C39.162 30.149 41.485 32.469 42.992 36.532L58.666 27.361C56.777 23.099 54.219 19.684 51.157 17.061C46.878 13.396 41.611 11.272 35.794 10.527V0.195984H27.668V10.297C27.292 10.333 26.92 10.373 26.544 10.423C17.796 11.538 9.68697 16.049 6.03097 24.206C4.72497 27.112 3.98597 30.482 3.98597 34.327C3.98597 38.959 5.05597 42.713 6.82397 45.812C10.265 51.842 16.353 55.384 22.358 58.04C23.638 58.609 24.913 59.133 26.157 59.634C26.3918 59.7516 26.6559 59.8397 26.9197 59.9277C27.1783 60.0139 27.4368 60.1001 27.667 60.214V76.236C22.444 75.309 19.076 72.055 16.638 66.485L0.615967 75.771C2.42597 80.599 5.28097 84.597 9.00497 87.657C13.875 91.661 20.23 94.051 27.666 94.578V104.679H35.792V94.463C49.609 92.838 59.592 84.247 59.592 69.736C59.594 65.804 58.857 62.582 57.599 59.892ZM22.56 34.444C22.56 31.656 24.3 29.451 27.668 28.638V40.827C24.297 38.902 23.003 37.294 22.661 35.542C22.591 35.184 22.56 34.82 22.56 34.444ZM35.794 63.583V76.004C39.742 74.958 41.02 72.406 41.019 69.969C41.019 69.778 41.011 69.593 40.997 69.411C40.784 66.836 39.047 65.208 35.794 63.583Z" fill="white"/>
</svg>
