<svg width="288" height="173" viewBox="0 0 288 173" fill="none" xmlns="http://www.w3.org/2000/svg">
<path fill-rule="evenodd" clip-rule="evenodd" d="M262.945 1.799H269.101C269.442 1.799 269.718 1.523 269.718 1.182C269.718 0.841002 269.442 0.565002 269.101 0.565002H262.945C262.604 0.565002 262.328 0.841002 262.328 1.182C262.328 1.523 262.604 1.799 262.945 1.799ZM280.759 4.816C280.631 4.816 280.502 4.776 280.391 4.694C278.793 3.506 277.006 2.669 275.078 2.206C274.747 2.126 274.543 1.793 274.622 1.462C274.702 1.131 275.036 0.927002 275.366 1.006C277.456 1.509 279.394 2.416 281.126 3.704C281.399 3.907 281.456 4.293 281.253 4.567C281.133 4.73 280.947 4.816 280.759 4.816ZM5.24397 6.322C5.36397 6.437 5.51797 6.494 5.67197 6.494C5.83397 6.494 5.99597 6.43 6.11597 6.305C7.49797 4.871 9.12197 3.749 10.945 2.972C11.258 2.839 11.403 2.476 11.27 2.163C11.137 1.85 10.774 1.705 10.461 1.838C8.48497 2.681 6.72497 3.896 5.22797 5.45C4.99097 5.695 4.99897 6.086 5.24397 6.322ZM286.823 15.148C286.517 15.148 286.252 14.921 286.212 14.61C285.959 12.64 285.32 10.774 284.313 9.061C284.14 8.767 284.238 8.389 284.532 8.217C284.825 8.044 285.204 8.142 285.376 8.436C286.468 10.293 287.161 12.318 287.435 14.453C287.478 14.791 287.24 15.1 286.902 15.143C286.876 15.146 286.849 15.148 286.823 15.148ZM0.771973 17.07C0.771973 17.411 1.04797 17.687 1.38897 17.687C1.72897 17.687 2.00497 17.411 2.00497 17.07V16.503C2.00497 14.695 2.32997 12.929 2.96897 11.256C3.09097 10.938 2.93097 10.582 2.61297 10.46C2.29497 10.338 1.93897 10.498 1.81697 10.816C1.12397 12.631 0.771973 14.544 0.771973 16.503V17.07ZM286.949 27.455C286.608 27.455 286.332 27.179 286.332 26.838V20.682C286.332 20.341 286.608 20.065 286.949 20.065C287.29 20.065 287.566 20.341 287.566 20.682V26.838C287.566 27.179 287.29 27.455 286.949 27.455ZM0.771973 29.382C0.771973 29.723 1.04797 29.999 1.38897 29.999C1.72897 29.999 2.00497 29.723 2.00597 29.382V23.226C2.00597 22.885 1.72997 22.609 1.38897 22.609C1.04797 22.609 0.771973 22.885 0.771973 23.226V29.382ZM286.949 39.767C286.608 39.767 286.332 39.491 286.332 39.15V32.994C286.332 32.653 286.608 32.377 286.949 32.377C287.29 32.377 287.566 32.653 287.566 32.994V39.15C287.566 39.491 287.29 39.767 286.949 39.767ZM0.771973 41.695C0.771973 42.036 1.04797 42.312 1.38897 42.312C1.72897 42.312 2.00497 42.036 2.00597 41.695V35.539C2.00597 35.198 1.72997 34.922 1.38897 34.922C1.04797 34.922 0.771973 35.198 0.771973 35.539V41.695ZM286.949 52.08C286.608 52.08 286.332 51.804 286.332 51.463V45.307C286.332 44.966 286.608 44.69 286.949 44.69C287.29 44.69 287.566 44.966 287.566 45.307V51.463C287.566 51.804 287.29 52.08 286.949 52.08ZM0.771973 54.008C0.771973 54.349 1.04797 54.625 1.38897 54.625C1.72897 54.625 2.00497 54.349 2.00597 54.008V47.852C2.00597 47.511 1.72997 47.235 1.38897 47.235C1.04797 47.235 0.771973 47.511 0.771973 47.852V54.008ZM286.949 64.392C286.608 64.392 286.332 64.116 286.332 63.775V57.619C286.332 57.278 286.608 57.002 286.949 57.002C287.29 57.002 287.566 57.278 287.566 57.619V63.775C287.566 64.116 287.29 64.392 286.949 64.392ZM0.771973 66.32C0.771973 66.661 1.04797 66.937 1.38897 66.937C1.72897 66.937 2.00497 66.661 2.00597 66.32V60.164C2.00597 59.823 1.72997 59.547 1.38897 59.547C1.04797 59.547 0.771973 59.823 0.771973 60.164V66.32ZM286.949 76.705C286.608 76.705 286.332 76.429 286.332 76.088V69.932C286.332 69.591 286.608 69.315 286.949 69.315C287.29 69.315 287.566 69.591 287.566 69.932V76.088C287.566 76.429 287.29 76.705 286.949 76.705ZM0.771973 78.633C0.771973 78.974 1.04797 79.25 1.38897 79.25C1.72897 79.25 2.00497 78.974 2.00597 78.633V72.477C2.00597 72.136 1.72997 71.86 1.38897 71.86C1.04797 71.86 0.771973 72.136 0.771973 72.477V78.633ZM286.949 89.018C286.608 89.018 286.332 88.742 286.332 88.401V82.245C286.332 81.904 286.608 81.628 286.949 81.628C287.29 81.628 287.566 81.904 287.566 82.245V88.401C287.566 88.742 287.29 89.018 286.949 89.018ZM0.771973 90.945C0.771973 91.286 1.04797 91.562 1.38897 91.562C1.72897 91.562 2.00497 91.286 2.00597 90.945V84.789C2.00597 84.448 1.72997 84.172 1.38897 84.172C1.04797 84.172 0.771973 84.448 0.771973 84.789V90.945ZM286.949 101.33C286.608 101.33 286.332 101.054 286.332 100.713V94.557C286.332 94.216 286.608 93.94 286.949 93.94C287.29 93.94 287.566 94.216 287.566 94.557V100.713C287.566 101.054 287.29 101.33 286.949 101.33ZM0.771973 103.258C0.771973 103.599 1.04797 103.875 1.38897 103.875C1.72897 103.875 2.00497 103.599 2.00597 103.258V97.102C2.00597 96.761 1.72997 96.485 1.38897 96.485C1.04797 96.485 0.771973 96.761 0.771973 97.102V103.258ZM286.949 113.643C286.608 113.643 286.332 113.367 286.332 113.026V106.87C286.332 106.529 286.608 106.253 286.949 106.253C287.29 106.253 287.566 106.529 287.566 106.87V113.026C287.566 113.367 287.29 113.643 286.949 113.643ZM0.771973 115.571C0.771973 115.912 1.04797 116.188 1.38897 116.188C1.72897 116.188 2.00497 115.912 2.00597 115.571V109.415C2.00597 109.074 1.72997 108.798 1.38897 108.798C1.04797 108.798 0.771973 109.074 0.771973 109.415V115.571ZM286.949 125.955C286.608 125.955 286.332 125.679 286.332 125.338V119.182C286.332 118.841 286.608 118.565 286.949 118.565C287.29 118.565 287.566 118.841 287.566 119.182V125.338C287.566 125.679 287.29 125.955 286.949 125.955ZM0.771973 127.883C0.771973 128.224 1.04797 128.5 1.38897 128.5C1.72897 128.5 2.00497 128.224 2.00597 127.883V121.727C2.00597 121.386 1.72997 121.11 1.38897 121.11C1.04797 121.11 0.771973 121.386 0.771973 121.727V127.883ZM286.949 138.268C286.608 138.268 286.332 137.992 286.332 137.651V131.495C286.332 131.154 286.608 130.878 286.949 130.878C287.29 130.878 287.566 131.154 287.566 131.495V137.651C287.566 137.992 287.29 138.268 286.949 138.268ZM0.771973 140.196C0.771973 140.537 1.04797 140.813 1.38897 140.813C1.72897 140.813 2.00497 140.537 2.00597 140.196V134.04C2.00597 133.699 1.72997 133.423 1.38897 133.423C1.04797 133.423 0.771973 133.699 0.771973 134.04V140.196ZM286.949 150.581C286.608 150.581 286.332 150.305 286.332 149.964V143.808C286.332 143.467 286.608 143.191 286.949 143.191C287.29 143.191 287.566 143.467 287.566 143.808V149.964C287.566 150.305 287.29 150.581 286.949 150.581ZM0.771973 152.508C0.771973 152.849 1.04797 153.125 1.38897 153.125C1.72897 153.125 2.00497 152.849 2.00597 152.508V146.352C2.00597 146.011 1.72997 145.735 1.38897 145.735C1.04797 145.735 0.771973 146.011 0.771973 146.352V152.508ZM285.951 162.772C285.878 162.772 285.804 162.759 285.732 162.731C285.414 162.61 285.254 162.253 285.375 161.935C286.01 160.266 286.333 158.506 286.333 156.704V156.12C286.333 155.779 286.609 155.503 286.95 155.503C287.291 155.503 287.567 155.779 287.567 156.12V156.704C287.567 158.657 287.218 160.565 286.529 162.374C286.434 162.62 286.2 162.772 285.951 162.772ZM2.95297 164.757C3.06797 164.953 3.27397 165.062 3.48597 165.062C3.59197 165.062 3.69897 165.034 3.79697 164.977C4.09097 164.805 4.18897 164.427 4.01697 164.133C3.01197 162.419 2.37497 160.551 2.12397 158.581C2.08097 158.243 1.76997 158.004 1.43397 158.047C1.09597 158.09 0.856973 158.399 0.899973 158.737C1.17197 160.874 1.86297 162.899 2.95297 164.757ZM277.65 171.413C277.411 171.413 277.183 171.273 277.083 171.039C276.949 170.726 277.094 170.363 277.407 170.229C279.229 169.449 280.852 168.326 282.232 166.891C282.468 166.645 282.859 166.638 283.104 166.874C283.35 167.11 283.358 167.5 283.121 167.746C281.626 169.302 279.867 170.519 277.892 171.364C277.813 171.397 277.731 171.413 277.65 171.413ZM12.954 172.197C13.002 172.208 13.051 172.214 13.099 172.214C13.377 172.214 13.63 172.024 13.699 171.742C13.779 171.411 13.575 171.078 13.244 170.998C11.317 170.533 9.53097 169.694 7.93397 168.504C7.66097 168.301 7.27497 168.357 7.07097 168.63C6.86697 168.903 6.92397 169.289 7.19697 169.493C8.92797 170.783 10.865 171.692 12.954 172.197ZM25.376 172.642H19.22C18.879 172.642 18.603 172.366 18.603 172.025C18.603 171.684 18.879 171.408 19.22 171.408H25.376C25.717 171.408 25.993 171.684 25.993 172.025C25.993 172.366 25.717 172.642 25.376 172.642ZM31.533 172.642H37.689C38.029 172.642 38.306 172.366 38.306 172.025C38.306 171.684 38.03 171.408 37.689 171.408H31.533C31.192 171.408 30.916 171.684 30.916 172.025C30.916 172.366 31.192 172.642 31.533 172.642ZM50.001 172.642H43.845C43.504 172.642 43.228 172.366 43.228 172.025C43.228 171.684 43.504 171.408 43.845 171.408H50.001C50.342 171.408 50.618 171.684 50.618 172.025C50.618 172.366 50.342 172.642 50.001 172.642ZM56.158 172.642H62.314C62.655 172.642 62.931 172.366 62.931 172.025C62.931 171.684 62.655 171.408 62.314 171.408H56.158C55.817 171.408 55.541 171.684 55.541 172.025C55.541 172.366 55.817 172.642 56.158 172.642ZM74.627 172.642H68.471C68.13 172.642 67.854 172.366 67.854 172.025C67.854 171.684 68.13 171.408 68.471 171.408H74.627C74.968 171.408 75.244 171.684 75.244 172.025C75.244 172.366 74.967 172.642 74.627 172.642ZM80.783 172.642H86.939C87.28 172.642 87.556 172.366 87.556 172.025C87.556 171.684 87.28 171.408 86.939 171.408H80.783C80.442 171.408 80.166 171.684 80.166 172.025C80.166 172.366 80.442 172.642 80.783 172.642ZM99.252 172.642H93.096C92.755 172.642 92.479 172.366 92.479 172.025C92.479 171.684 92.755 171.408 93.096 171.408H99.252C99.593 171.408 99.869 171.684 99.869 172.025C99.869 172.366 99.592 172.642 99.252 172.642ZM105.408 172.642H111.564C111.905 172.642 112.181 172.366 112.181 172.025C112.181 171.684 111.905 171.408 111.564 171.408H105.408C105.067 171.408 104.791 171.684 104.791 172.025C104.791 172.366 105.067 172.642 105.408 172.642ZM123.877 172.642H117.721C117.38 172.642 117.104 172.366 117.104 172.025C117.104 171.684 117.38 171.408 117.721 171.408H123.877C124.218 171.408 124.494 171.684 124.494 172.025C124.494 172.366 124.218 172.642 123.877 172.642ZM130.034 172.642H136.19C136.53 172.642 136.807 172.366 136.807 172.025C136.807 171.684 136.531 171.408 136.19 171.408H130.034C129.693 171.408 129.417 171.684 129.417 172.025C129.417 172.366 129.693 172.642 130.034 172.642ZM148.502 172.642H142.346C142.005 172.642 141.729 172.366 141.729 172.025C141.729 171.684 142.005 171.408 142.346 171.408H148.502C148.843 171.408 149.119 171.684 149.119 172.025C149.119 172.366 148.843 172.642 148.502 172.642ZM154.659 172.642H160.815C161.155 172.642 161.432 172.366 161.432 172.025C161.432 171.684 161.156 171.408 160.815 171.408H154.659C154.318 171.408 154.042 171.684 154.042 172.025C154.042 172.366 154.318 172.642 154.659 172.642ZM173.127 172.642H166.971C166.63 172.642 166.354 172.366 166.354 172.025C166.354 171.684 166.63 171.408 166.971 171.408H173.127C173.468 171.408 173.744 171.684 173.744 172.025C173.744 172.366 173.468 172.642 173.127 172.642ZM179.284 172.642H185.44C185.781 172.642 186.057 172.366 186.057 172.025C186.057 171.684 185.781 171.408 185.44 171.408H179.284C178.943 171.408 178.667 171.684 178.667 172.025C178.667 172.366 178.943 172.642 179.284 172.642ZM197.753 172.642H191.597C191.256 172.642 190.98 172.366 190.98 172.025C190.98 171.684 191.256 171.408 191.597 171.408H197.753C198.094 171.408 198.37 171.684 198.37 172.025C198.37 172.366 198.093 172.642 197.753 172.642ZM203.909 172.642H210.065C210.406 172.642 210.682 172.366 210.682 172.025C210.682 171.684 210.406 171.408 210.065 171.408H203.909C203.568 171.408 203.292 171.684 203.292 172.025C203.292 172.366 203.568 172.642 203.909 172.642ZM222.378 172.642H216.222C215.881 172.642 215.605 172.366 215.605 172.025C215.605 171.684 215.881 171.408 216.222 171.408H222.378C222.719 171.408 222.995 171.684 222.995 172.025C222.995 172.366 222.719 172.642 222.378 172.642ZM228.534 172.642H234.69C235.031 172.642 235.307 172.366 235.307 172.025C235.307 171.684 235.031 171.408 234.69 171.408H228.534C228.193 171.408 227.917 171.684 227.917 172.025C227.917 172.366 228.193 172.642 228.534 172.642ZM247.003 172.642H240.847C240.506 172.642 240.23 172.366 240.23 172.025C240.23 171.684 240.506 171.408 240.847 171.408H247.003C247.344 171.408 247.62 171.684 247.62 172.025C247.62 172.366 247.344 172.642 247.003 172.642ZM253.16 172.642H259.316C259.656 172.642 259.933 172.366 259.933 172.025C259.933 171.684 259.657 171.408 259.316 171.408H253.16C252.819 171.408 252.543 171.684 252.543 172.025C252.543 172.366 252.819 172.642 253.16 172.642ZM265.472 172.642H271.662C272.003 172.642 272.279 172.366 272.279 172.025C272.279 171.684 272.003 171.408 271.662 171.408H265.472C265.131 171.408 264.855 171.684 264.855 172.025C264.855 172.366 265.131 172.642 265.472 172.642ZM256.789 1.799H250.633C250.292 1.799 250.016 1.523 250.016 1.182C250.016 0.841002 250.292 0.565002 250.633 0.565002H256.789C257.13 0.565002 257.406 0.841002 257.406 1.182C257.405 1.523 257.129 1.799 256.789 1.799ZM238.32 1.799H244.476C244.817 1.799 245.093 1.523 245.093 1.182C245.093 0.841002 244.817 0.565002 244.476 0.565002H238.32C237.979 0.565002 237.703 0.841002 237.703 1.182C237.703 1.523 237.979 1.799 238.32 1.799ZM232.164 1.799H226.008C225.667 1.799 225.391 1.523 225.391 1.182C225.391 0.841002 225.667 0.565002 226.008 0.565002H232.164C232.505 0.565002 232.781 0.841002 232.781 1.182C232.78 1.523 232.504 1.799 232.164 1.799ZM213.695 1.799H219.851C220.191 1.799 220.468 1.523 220.468 1.182C220.468 0.841002 220.192 0.565002 219.851 0.565002H213.695C213.354 0.565002 213.078 0.841002 213.078 1.182C213.078 1.523 213.354 1.799 213.695 1.799ZM207.538 1.799H201.382C201.041 1.799 200.765 1.523 200.765 1.182C200.765 0.841002 201.041 0.565002 201.382 0.565002H207.538C207.879 0.565002 208.155 0.841002 208.155 1.182C208.155 1.523 207.879 1.799 207.538 1.799ZM189.07 1.799H195.226C195.566 1.799 195.842 1.523 195.843 1.182C195.843 0.841002 195.567 0.565002 195.226 0.565002H189.07C188.729 0.565002 188.453 0.841002 188.453 1.182C188.453 1.523 188.729 1.799 189.07 1.799ZM182.913 1.799H176.757C176.416 1.799 176.14 1.523 176.14 1.182C176.14 0.841002 176.416 0.565002 176.757 0.565002H182.913C183.254 0.565002 183.53 0.841002 183.53 1.182C183.53 1.523 183.254 1.799 182.913 1.799ZM164.444 1.799H170.6C170.941 1.799 171.217 1.523 171.217 1.182C171.217 0.841002 170.941 0.565002 170.6 0.565002H164.444C164.103 0.565002 163.827 0.841002 163.827 1.182C163.827 1.523 164.103 1.799 164.444 1.799ZM158.288 1.799H152.132C151.791 1.799 151.515 1.523 151.515 1.182C151.515 0.841002 151.791 0.565002 152.132 0.565002H158.288C158.629 0.565002 158.905 0.841002 158.905 1.182C158.905 1.523 158.629 1.799 158.288 1.799ZM139.819 1.799H145.975C146.316 1.799 146.592 1.523 146.592 1.182C146.592 0.841002 146.316 0.565002 145.975 0.565002H139.819C139.478 0.565002 139.202 0.841002 139.202 1.182C139.202 1.523 139.478 1.799 139.819 1.799ZM133.663 1.799H127.507C127.166 1.799 126.89 1.523 126.89 1.182C126.89 0.841002 127.166 0.565002 127.507 0.565002H133.663C134.004 0.565002 134.28 0.841002 134.28 1.182C134.279 1.523 134.003 1.799 133.663 1.799ZM115.194 1.799H121.35C121.691 1.799 121.967 1.523 121.967 1.182C121.967 0.841002 121.691 0.565002 121.35 0.565002H115.194C114.853 0.565002 114.577 0.841002 114.577 1.182C114.577 1.523 114.853 1.799 115.194 1.799ZM109.037 1.799H102.881C102.54 1.799 102.264 1.523 102.264 1.182C102.264 0.841002 102.54 0.565002 102.881 0.565002H109.037C109.378 0.565002 109.654 0.841002 109.654 1.182C109.654 1.523 109.378 1.799 109.037 1.799ZM90.569 1.799H96.725C97.066 1.799 97.342 1.523 97.342 1.182C97.342 0.841002 97.066 0.565002 96.725 0.565002H90.569C90.228 0.565002 89.952 0.841002 89.952 1.182C89.952 1.523 90.228 1.799 90.569 1.799ZM84.412 1.799H78.256C77.915 1.799 77.639 1.523 77.639 1.182C77.639 0.841002 77.915 0.565002 78.256 0.565002H84.412C84.753 0.565002 85.029 0.841002 85.029 1.182C85.029 1.523 84.753 1.799 84.412 1.799ZM65.944 1.799H72.1C72.44 1.799 72.716 1.523 72.717 1.182C72.717 0.841002 72.441 0.565002 72.1 0.565002H65.944C65.603 0.565002 65.327 0.841002 65.327 1.182C65.327 1.523 65.603 1.799 65.944 1.799ZM59.787 1.799H53.631C53.29 1.799 53.014 1.523 53.014 1.182C53.014 0.841002 53.29 0.565002 53.631 0.565002H59.787C60.128 0.565002 60.404 0.841002 60.404 1.182C60.404 1.523 60.128 1.799 59.787 1.799ZM41.318 1.799H47.474C47.815 1.799 48.091 1.523 48.091 1.182C48.091 0.841002 47.815 0.565002 47.474 0.565002H41.318C40.977 0.565002 40.701 0.841002 40.701 1.182C40.701 1.523 40.977 1.799 41.318 1.799ZM35.162 1.799H29.006C28.665 1.799 28.389 1.523 28.389 1.182C28.389 0.841002 28.665 0.565002 29.006 0.565002H35.162C35.503 0.565002 35.779 0.841002 35.779 1.182C35.778 1.523 35.502 1.799 35.162 1.799ZM16.71 1.799H22.849C23.19 1.799 23.466 1.523 23.466 1.182C23.466 0.841002 23.19 0.565002 22.849 0.565002H16.693C16.353 0.565002 16.085 0.841002 16.085 1.182C16.085 1.523 16.369 1.799 16.71 1.799Z" fill="white"/>
</svg>
