<svg width="45" height="70" viewBox="0 0 45 70" fill="none" xmlns="http://www.w3.org/2000/svg">
<path fill-rule="evenodd" clip-rule="evenodd" d="M43.464 39.647C41.027 35.086 35.994 32.859 31.126 31.072C30.4926 30.8399 29.8616 30.6151 29.2395 30.3934L29.2391 30.3933L29.2389 30.3932C28.4755 30.1212 27.7255 29.854 27.001 29.584V19.228C29.544 19.996 31.298 21.529 32.436 24.213L44.271 18.154C42.845 15.338 40.913 13.082 38.601 11.349C35.37 8.928 31.393 7.524 27.001 7.032V0.207001H20.866V6.881C20.582 6.905 20.301 6.931 20.017 6.964C13.412 7.701 7.29002 10.681 4.52902 16.07C3.54302 17.99 2.98502 20.217 2.98502 22.757C2.98502 25.817 3.79302 28.298 5.12802 30.345C7.72602 34.329 12.323 36.669 16.857 38.424C17.824 38.8 18.786 39.146 19.726 39.477C19.9032 39.5548 20.1027 39.6129 20.3019 39.671C20.4972 39.7279 20.6922 39.7847 20.866 39.86V50.445C16.922 49.832 14.379 47.683 12.539 44.003L0.442017 50.138C1.80902 53.328 3.96502 55.969 6.77602 57.991C10.453 60.636 15.251 62.215 20.866 62.563V69.237H27.001V62.487C37.433 61.413 44.971 55.737 44.971 46.15C44.971 43.553 44.414 41.425 43.464 39.647ZM17.009 22.835C17.009 20.993 18.323 19.536 20.866 18.999V27.052C18.321 25.78 17.343 24.718 17.085 23.561C17.032 23.324 17.009 23.083 17.009 22.835ZM27.001 42.086V50.292C29.982 49.601 30.946 47.915 30.947 46.305C30.947 46.18 30.94 46.057 30.93 45.937C30.769 44.235 29.457 43.16 27.001 42.086Z" fill="white"/>
</svg>
