<svg width="45" height="70" viewBox="0 0 45 70" fill="none" xmlns="http://www.w3.org/2000/svg">
<path fill-rule="evenodd" clip-rule="evenodd" d="M43.188 39.903C40.751 35.342 35.718 33.115 30.85 31.328C30.2166 31.0959 29.5856 30.8711 28.9635 30.6494L28.9631 30.6493L28.9629 30.6492C28.1994 30.3772 27.4495 30.11 26.725 29.84V19.484C29.268 20.252 31.022 21.785 32.16 24.469L43.995 18.41C42.569 15.594 40.637 13.338 38.325 11.605C35.094 9.18401 31.117 7.78001 26.725 7.28801V0.463013H20.59V7.13701C20.306 7.16101 20.025 7.18701 19.742 7.22001C13.137 7.95701 7.01499 10.937 4.25399 16.326C3.26799 18.246 2.70999 20.473 2.70999 23.013C2.70999 26.073 3.51799 28.554 4.85299 30.601C7.45099 34.585 12.048 36.925 16.582 38.68C17.549 39.056 18.511 39.402 19.451 39.733C19.6282 39.8108 19.8276 39.8689 20.0268 39.927C20.2221 39.9839 20.4172 40.0408 20.591 40.116V50.701C16.648 50.088 14.105 47.939 12.264 44.259L0.166992 50.394C1.53399 53.584 3.68899 56.225 6.50099 58.247C10.178 60.892 14.976 62.471 20.591 62.819V69.493H26.726V62.743C37.158 61.669 44.696 55.993 44.696 46.406C44.694 43.809 44.138 41.68 43.188 39.903ZM16.732 23.091C16.732 21.249 18.046 19.792 20.589 19.255V27.308C18.044 26.036 17.066 24.974 16.808 23.817C16.756 23.579 16.732 23.339 16.732 23.091ZM26.724 42.342V50.548C29.705 49.857 30.67 48.171 30.67 46.561C30.67 46.436 30.663 46.313 30.653 46.193C30.492 44.491 29.18 43.416 26.724 42.342Z" fill="white"/>
</svg>
