<svg width="106" height="61" viewBox="0 0 106 61" fill="none" xmlns="http://www.w3.org/2000/svg">
<path fill-rule="evenodd" clip-rule="evenodd" d="M29.505 0.270996L35.673 0.297996C36.012 0.299996 36.288 0.575996 36.286 0.916996C36.286 1.256 36.008 1.532 35.669 1.532H35.667L29.499 1.505C29.157 1.505 28.884 1.227 28.884 0.885996C28.886 0.546996 29.162 0.270996 29.501 0.270996H29.505ZM48.008 0.349996L41.84 0.322996H41.836C41.497 0.322996 41.221 0.598996 41.219 0.937996C41.219 1.279 41.492 1.557 41.834 1.557L48.002 1.584H48.004C48.343 1.584 48.621 1.308 48.621 0.968996C48.623 0.626996 48.348 0.349996 48.008 0.349996ZM54.176 0.373996L60.342 0.400996C60.683 0.400996 60.958 0.677996 60.957 1.02C60.955 1.359 60.679 1.635 60.34 1.635H60.338L54.17 1.608C53.828 1.606 53.555 1.33 53.555 0.988996C53.557 0.649996 53.833 0.373996 54.172 0.373996H54.176ZM72.677 0.451996L66.509 0.424996H66.507C66.168 0.424996 65.892 0.700996 65.89 1.04C65.888 1.381 66.163 1.657 66.505 1.659L72.673 1.686H72.675C73.014 1.686 73.29 1.411 73.292 1.071C73.294 0.729996 73.018 0.451996 72.677 0.451996ZM78.844 0.476996L85.012 0.501996C85.353 0.503996 85.629 0.780996 85.627 1.123C85.625 1.463 85.349 1.736 85.01 1.736H85.008L78.84 1.711C78.498 1.709 78.223 1.431 78.225 1.092C78.227 0.749996 78.503 0.476996 78.842 0.476996H78.844ZM97.347 0.552996L91.179 0.527996H91.177C90.838 0.527996 90.562 0.800996 90.56 1.143C90.558 1.482 90.833 1.76 91.175 1.762L97.343 1.787H97.345C97.684 1.787 97.96 1.514 97.962 1.174C97.964 0.832996 97.688 0.554996 97.347 0.552996ZM103.513 0.579996H103.515L105.199 0.585996V1.82L103.511 1.814C103.169 1.812 102.894 1.534 102.896 1.195C102.898 0.852996 103.174 0.579996 103.513 0.579996ZM23.977 1.301C23.909 0.967996 23.582 0.749996 23.251 0.817996C21.191 1.229 19.174 1.877 17.258 2.738C16.948 2.878 16.81 3.244 16.95 3.554C17.053 3.782 17.277 3.918 17.513 3.918C17.597 3.918 17.684 3.902 17.766 3.865C19.596 3.039 21.524 2.422 23.492 2.027C23.827 1.961 24.043 1.636 23.977 1.301ZM11.849 5.948C12.121 5.742 12.509 5.796 12.713 6.067C12.919 6.338 12.865 6.727 12.594 6.932C10.992 8.142 9.52202 9.534 8.22502 11.07C8.10302 11.214 7.92902 11.288 7.75402 11.288C7.61402 11.288 7.47202 11.241 7.35702 11.144C7.09602 10.924 7.06302 10.533 7.28302 10.274C8.63802 8.668 10.174 7.212 11.849 5.948ZM4.61702 15.238C4.31502 15.082 3.94302 15.199 3.78402 15.501C2.81802 17.37 2.06302 19.348 1.53902 21.381C1.45502 21.71 1.65202 22.047 1.98102 22.131C2.03502 22.145 2.08602 22.152 2.13702 22.152C2.41002 22.152 2.66102 21.967 2.73302 21.689C3.23302 19.744 3.95602 17.855 4.87902 16.068C5.03602 15.766 4.91902 15.394 4.61702 15.238ZM1.88302 28.429V31.936C1.88302 32.54 1.90302 33.153 1.94402 33.752C1.96802 34.093 1.70902 34.387 1.37002 34.41H1.32902C1.00602 34.41 0.735024 34.161 0.714024 33.834C0.673024 33.207 0.650024 32.569 0.650024 31.936V28.429C0.650024 28.156 0.654024 27.882 0.662024 27.611C0.672024 27.27 0.956024 26.999 1.29502 27.011C1.63602 27.021 1.90302 27.305 1.89502 27.646C1.88702 27.907 1.88302 28.168 1.88302 28.429ZM5.37402 45.203C4.38102 43.453 3.58702 41.593 3.01202 39.673C2.91302 39.346 2.57202 39.161 2.24302 39.258C1.91602 39.357 1.73102 39.7 1.83002 40.027C2.43202 42.036 3.26302 43.983 4.30102 45.812C4.41402 46.013 4.62402 46.124 4.83802 46.124C4.94102 46.124 5.04602 46.099 5.14202 46.044C5.43702 45.875 5.54002 45.499 5.37402 45.203ZM8.90602 50.071C10.261 51.555 11.782 52.892 13.429 54.039C13.708 54.234 13.776 54.618 13.582 54.899C13.463 55.069 13.271 55.162 13.076 55.162C12.954 55.162 12.831 55.127 12.724 55.051C11.001 53.85 9.40902 52.454 7.99502 50.902C7.76502 50.651 7.78302 50.26 8.03402 50.03C8.28702 49.802 8.67602 49.818 8.90602 50.071ZM24.512 58.52C22.528 58.201 20.577 57.659 18.716 56.906C18.401 56.778 18.042 56.931 17.914 57.247C17.787 57.562 17.939 57.921 18.253 58.049C20.2 58.836 22.239 59.406 24.316 59.739C24.349 59.743 24.382 59.745 24.415 59.745C24.713 59.745 24.974 59.529 25.024 59.227C25.077 58.891 24.849 58.574 24.512 58.52ZM30.564 58.87L36.732 58.895C37.073 58.897 37.349 59.174 37.347 59.514C37.345 59.856 37.069 60.129 36.73 60.129H36.728L30.56 60.104C30.218 60.102 29.943 59.824 29.945 59.483C29.947 59.143 30.223 58.87 30.562 58.87H30.564ZM49.067 58.946L42.899 58.919H42.897C42.558 58.919 42.282 59.195 42.28 59.534C42.278 59.875 42.553 60.153 42.895 60.153L49.063 60.18H49.065C49.404 60.18 49.68 59.904 49.682 59.565C49.682 59.224 49.408 58.948 49.067 58.946ZM55.234 58.97L61.402 58.997C61.744 58.999 62.017 59.275 62.017 59.616C62.015 59.955 61.739 60.231 61.4 60.231H61.398L55.23 60.204C54.888 60.204 54.613 59.926 54.615 59.585C54.615 59.246 54.893 58.97 55.232 58.97H55.234ZM73.738 59.049L67.57 59.022H67.568C67.229 59.022 66.951 59.298 66.951 59.637C66.949 59.978 67.224 60.256 67.566 60.256L73.732 60.283H73.736C74.075 60.283 74.351 60.007 74.353 59.668C74.352 59.326 74.079 59.049 73.738 59.049ZM79.905 59.073L86.073 59.1C86.414 59.1 86.688 59.378 86.688 59.719C86.686 60.058 86.41 60.334 86.071 60.334H86.067L79.899 60.307C79.559 60.305 79.284 60.029 79.286 59.688C79.286 59.349 79.564 59.073 79.903 59.073H79.905ZM98.408 59.152L92.24 59.125H92.238C91.899 59.125 91.621 59.401 91.621 59.74C91.619 60.079 91.894 60.357 92.234 60.359L98.402 60.386H98.406C98.745 60.386 99.021 60.11 99.023 59.771C99.023 59.429 98.747 59.152 98.408 59.152ZM104.576 59.176H104.574C104.233 59.176 103.957 59.449 103.957 59.791C103.955 60.13 104.23 60.408 104.57 60.41L105.199 60.412V59.178L104.576 59.176Z" fill="white"/>
</svg>
