<svg width="77" height="42" viewBox="0 0 77 42" fill="none" xmlns="http://www.w3.org/2000/svg">
<path opacity="0.31" d="M76.838 10.099V32.866C76.79 32.863 76.745 32.863 76.697 32.863C73.786 32.863 71.352 34.926 70.785 37.668C67.022 36.788 62.495 36.094 55.526 36.094C45.724 36.094 40.75 37.468 35.942 38.795C31.555 40.009 27.411 41.153 18.902 41.153C12.987 41.153 9.182 40.599 5.936 39.858C6.175 39.212 6.304 38.512 6.304 37.781C6.304 34.445 3.598 31.739 0.262002 31.739C0.214002 31.739 0.169002 31.739 0.121002 31.742V8.97402C2.999 8.90902 5.379 6.83002 5.91 4.09302C9.237 4.73102 13.272 5.18302 18.901 5.18302C28.705 5.18302 33.679 3.80902 38.488 2.48202C42.875 1.26802 47.019 0.124023 55.526 0.124023C63.018 0.124023 67.129 1.01202 70.998 2.05202C70.776 2.67902 70.655 3.35602 70.655 4.05802C70.655 7.39402 73.361 10.1 76.697 10.1C76.745 10.101 76.79 10.101 76.838 10.099Z" fill="white"/>
</svg>
