<svg width="53" height="47" viewBox="0 0 53 47" fill="none" xmlns="http://www.w3.org/2000/svg">
<path opacity="0.24" d="M52.157 12.28L6.72299 46.122C6.21499 45.476 5.73599 44.808 5.28499 44.12C4.55899 43.012 3.90999 41.849 3.34299 40.64C2.67899 39.223 2.12799 37.741 1.70399 36.208C1.03499 33.795 0.677994 31.253 0.677994 28.627V28.59C0.697994 12.959 13.376 0.29303 29.012 0.29303C33.369 0.29303 37.496 1.27603 41.184 3.03303C43.023 3.91003 44.752 4.97803 46.347 6.21303C47.839 7.36803 49.212 8.66903 50.446 10.094C51.052 10.795 51.623 11.524 52.157 12.28Z" fill="white"/>
</svg>
