<svg width="11" height="4" viewBox="0 0 11 4" fill="none" xmlns="http://www.w3.org/2000/svg">
<path opacity="0.2" d="M0.606988 3.286C0.913988 2.754 1.31799 2.285 1.78799 1.889C2.25299 1.497 2.78199 1.182 3.33999 0.941997C3.95399 0.676997 4.61399 0.509997 5.27699 0.420997C6.02399 0.319997 6.78299 0.316997 7.53299 0.371997C8.29699 0.427997 9.05699 0.541997 9.80699 0.693997C9.90299 0.712997 9.99799 0.733997 10.094 0.753997C10.157 0.767997 10.223 0.734997 10.241 0.670997C10.257 0.610997 10.221 0.537997 10.158 0.523997C9.38499 0.355997 8.60199 0.228997 7.81499 0.156997C7.05199 0.0869974 6.28199 0.0729974 5.51899 0.153997C4.81099 0.228997 4.10899 0.380997 3.44499 0.642997C2.85399 0.875997 2.29899 1.187 1.79799 1.577C1.29899 1.965 0.862988 2.434 0.522988 2.967C0.480988 3.033 0.440988 3.099 0.401988 3.167C0.324988 3.299 0.530988 3.419 0.606988 3.286Z" fill="white"/>
</svg>
