<svg width="87" height="51" viewBox="0 0 87 51" fill="none" xmlns="http://www.w3.org/2000/svg">
<path d="M86.615 6.44502V47.65C86.615 48.994 85.378 49.999 84.064 49.721C76.99 48.225 73.018 45.871 60.526 45.871C42.215 45.871 42.215 50.929 23.902 50.929C12.384 50.929 8.109 48.928 1.966 47.444C1.015 47.214 0.345001 46.365 0.345001 45.387V4.22602C0.345001 2.84202 1.651 1.83202 2.991 2.17702C8.616 3.62502 13.035 5.40602 23.902 5.40602C42.215 5.40602 42.215 0.348022 60.526 0.348022C73.503 0.348022 77.285 2.88802 84.902 4.36802C85.897 4.56102 86.615 5.43202 86.615 6.44502Z" fill="#13A173"/>
</svg>
