<svg width="33" height="46" viewBox="0 0 33 46" fill="none" xmlns="http://www.w3.org/2000/svg">
<path d="M0.572005 44.358C0.485005 46.66 29.22 45.584 32.926 43.263C32.92 42.513 32.907 41.773 32.895 41.048C32.886 40.625 32.876 40.205 32.867 39.791C32.83 38.348 32.78 36.954 32.718 35.61C32.699 35.187 32.678 34.77 32.656 34.356C32.594 33.214 32.525 32.113 32.448 31.046C32.417 30.62 32.386 30.203 32.352 29.792C32.268 28.731 32.175 27.708 32.072 26.722C32.028 26.296 31.985 25.879 31.938 25.468C31.81 24.305 31.671 23.191 31.521 22.13C31.462 21.704 31.4 21.287 31.337 20.876C31.222 20.101 31.101 19.355 30.973 18.636C30.901 18.21 30.824 17.79 30.749 17.382C30.625 16.729 30.497 16.1 30.369 15.497C30.297 15.158 30.226 14.828 30.151 14.505C30.132 14.415 30.111 14.328 30.092 14.241C29.884 13.333 29.669 12.483 29.454 11.69C29.336 11.254 29.218 10.838 29.099 10.436C28.797 9.42201 28.499 8.51401 28.203 7.69501C28.041 7.25001 27.883 6.83301 27.724 6.44101C27.313 5.41801 26.918 4.57401 26.561 3.88701C26.303 3.38901 26.063 2.97601 25.852 2.63001C25.224 1.61901 24.819 1.22701 24.819 1.22701C24.819 1.22701 24.807 1.22101 24.779 1.20801C24.614 1.13301 23.92 0.872007 22.101 0.785007H22.098L21.921 0.776007C21.918 0.779007 21.912 0.779007 21.902 0.776007C21.236 0.751007 20.427 0.748007 19.448 0.785007C17.83 0.844007 15.755 1.01201 13.102 1.35701C11.886 1.51301 10.548 1.70901 9.08 1.94801C8.756 2.12201 8.445 2.35201 8.14701 2.62901C7.774 2.97401 7.41601 3.39401 7.08001 3.88601C6.58501 4.60201 6.12801 5.46001 5.70501 6.44001C5.53401 6.83801 5.36901 7.25801 5.20701 7.69401C4.893 8.54301 4.60001 9.46401 4.33 10.435C4.215 10.843 4.106 11.263 4.00001 11.689C3.79201 12.51 3.599 13.363 3.415 14.24C3.32801 14.654 3.247 15.071 3.166 15.497C3.085 15.923 3.007 16.353 2.929 16.788C2.895 16.984 2.86 17.183 2.826 17.382C2.758 17.796 2.68901 18.216 2.62101 18.636C2.50901 19.376 2.40001 20.126 2.29701 20.876C2.24701 21.234 2.20101 21.595 2.15401 21.956C2.14801 22.015 2.13801 22.071 2.132 22.13C1.989 23.244 1.86101 24.357 1.74601 25.468C1.71801 25.745 1.687 26.022 1.662 26.299C1.646 26.439 1.634 26.582 1.622 26.722C1.51901 27.758 1.42901 28.784 1.348 29.792C1.311 30.215 1.28001 30.632 1.24901 31.046C1.16201 32.188 1.08701 33.295 1.022 34.356C0.994005 34.782 0.969005 35.202 0.947005 35.61C0.860005 37.144 0.795005 38.556 0.742005 39.791C0.723005 40.233 0.708005 40.653 0.692005 41.048C0.631005 42.56 0.597005 43.708 0.572005 44.358Z" fill="#FDBD28"/>
</svg>
