<svg width="29" height="16" viewBox="0 0 29 16" fill="none" xmlns="http://www.w3.org/2000/svg">
<path d="M28.353 11.422L28.117 14.415C28.117 14.415 27.648 14.541 26.823 14.694C23.106 15.392 12.139 16.692 3.98799 9.89699C3.91899 9.84099 3.85299 9.78399 3.78599 9.72499V9.72299C3.34399 9.34999 2.91399 8.95199 2.49499 8.52699C2.48299 8.51299 2.46799 8.49999 2.45499 8.48599C2.42799 8.45899 2.40299 8.43299 2.37599 8.40599C2.30399 8.33399 2.23099 8.25699 2.15999 8.18299C1.91499 7.92299 1.67399 7.65599 1.43999 7.37999C1.38199 7.31899 1.32799 7.25299 1.27099 7.18699C1.10699 6.98599 0.938995 6.78299 0.780995 6.57299C0.780995 6.57299 0.459995 5.53599 0.688995 4.29999C0.785995 3.77099 0.985995 3.20399 1.35299 2.66699C1.45299 2.51599 1.56799 2.36999 1.69799 2.22699C1.71599 2.20199 1.73799 2.18299 1.75699 2.15999C1.88999 2.01799 2.03099 1.88199 2.19699 1.75199C2.23699 1.71699 2.28099 1.68199 2.32399 1.64899C2.70499 1.36199 3.16199 1.10099 3.71399 0.885993C4.79999 0.461993 6.24899 0.196993 8.18399 0.203993C8.18399 0.203993 8.27099 0.324993 8.43899 0.545993C8.64699 0.812993 8.98199 1.22899 9.43199 1.73999C12.143 4.84099 19.077 11.525 28.353 11.422Z" fill="#FCC0BF"/>
</svg>
