<svg width="2" height="3" viewBox="0 0 2 3" fill="none" xmlns="http://www.w3.org/2000/svg">
<path opacity="0.2" d="M1.20601 0.339995C1.07901 0.284995 1.02401 0.392995 0.998009 0.494995C0.970009 0.604995 0.953009 0.716995 0.937009 0.828995C0.888009 1.18899 0.871009 1.55399 0.910009 1.91599C0.917009 1.97999 0.960009 2.03499 1.02901 2.03499C1.08801 2.03499 1.15501 1.97999 1.14801 1.91599C1.11401 1.59599 1.12301 1.27199 1.15901 0.952995C1.17101 0.852995 1.18601 0.744995 1.20901 0.634995C1.21601 0.599995 1.22401 0.564995 1.23401 0.530995C1.23701 0.519995 1.24201 0.508995 1.24401 0.497995C1.24901 0.477995 1.23001 0.525995 1.23801 0.512995C1.23901 0.511995 1.23901 0.509995 1.24001 0.508995C1.21901 0.542995 1.18701 0.560995 1.14301 0.562995C1.12301 0.557995 1.10301 0.551995 1.08301 0.546995C1.08301 0.546995 1.08301 0.546995 1.08401 0.546995C1.14301 0.572995 1.21201 0.564995 1.24701 0.503995C1.27801 0.451995 1.26501 0.364995 1.20601 0.339995Z" fill="white"/>
</svg>
