<svg width="10" height="2" viewBox="0 0 10 2" fill="none" xmlns="http://www.w3.org/2000/svg">
<path opacity="0.2" d="M0.752014 1.701C1.27401 1.539 1.79601 1.376 2.33201 1.267C2.85401 1.16 3.38401 1.107 3.91601 1.089C5.00101 1.052 6.08501 1.159 7.16401 1.261C7.77301 1.319 8.38201 1.376 8.99401 1.407C9.05801 1.41 9.11301 1.35 9.11301 1.288C9.11301 1.221 9.05801 1.172 8.99401 1.169C7.90001 1.114 6.81201 0.974996 5.71901 0.896996C4.63501 0.819996 3.54001 0.806996 2.46701 0.999996C1.86201 1.108 1.27401 1.29 0.689014 1.472C0.542014 1.517 0.605014 1.747 0.752014 1.701Z" fill="white"/>
</svg>
