<svg width="58" height="57" viewBox="0 0 58 57" fill="none" xmlns="http://www.w3.org/2000/svg">
<path d="M57.347 28.627C57.347 44.275 44.661 56.961 29.013 56.961C23.892 56.961 19.089 55.603 14.943 53.226C12.422 51.781 10.145 49.96 8.188 47.84C7.677 47.288 7.189 46.715 6.724 46.123C6.216 45.477 5.737 44.809 5.286 44.121C4.56 43.013 3.911 41.85 3.344 40.641C2.68 39.224 2.129 37.742 1.705 36.209C1.036 33.796 0.679001 31.254 0.679001 28.628V28.591C0.699001 12.96 13.377 0.294006 29.013 0.294006C33.37 0.294006 37.497 1.27701 41.185 3.03401C43.024 3.91101 44.753 4.97901 46.348 6.21401C47.84 7.36901 49.213 8.67001 50.447 10.095C51.052 10.795 51.624 11.524 52.158 12.28C52.862 13.273 53.502 14.313 54.074 15.395C54.931 17.013 55.635 18.724 56.168 20.509C56.84 22.763 57.24 25.135 57.329 27.586C57.34 27.931 57.347 28.279 57.347 28.627Z" fill="#FDBD28"/>
</svg>
