<svg width="9" height="7" viewBox="0 0 9 7" fill="none" xmlns="http://www.w3.org/2000/svg">
<path d="M1.44801 2.34298L0.154013 2.34698C0.0380135 2.34098 0.516013 5.53398 0.516013 5.53398C0.516013 5.53398 5.86801 6.64298 6.26701 6.55198C6.66601 6.46098 5.00301 5.62797 5.00301 5.62797C5.00301 5.62797 6.73701 6.09398 7.34301 5.91998C7.82601 5.78098 5.48501 4.88798 5.48501 4.88798C6.50401 5.01198 8.14301 5.32897 8.22901 5.00397C8.33701 4.59697 5.41601 4.03898 5.41601 4.03898C5.41601 4.03898 7.37201 4.25398 7.58001 3.90098C7.78901 3.54798 3.85301 2.64798 3.85301 2.64798C3.85301 2.64798 4.72201 2.16598 4.90601 1.24698C4.90601 1.24498 4.90701 1.24198 4.90701 1.23998C4.96001 0.940975 4.57701 0.762975 4.36801 0.976975C3.52701 1.84098 1.44801 2.34298 1.44801 2.34298Z" fill="#FCC0BF"/>
</svg>
