<svg width="11" height="7" viewBox="0 0 11 7" fill="none" xmlns="http://www.w3.org/2000/svg">
<path d="M1.88 2.792L0.374003 3.085C0.237003 3.104 1.666 6.424 1.666 6.424C1.666 6.424 7.887 6.722 8.333 6.53C8.779 6.338 6.677 5.755 6.677 5.755C6.677 5.755 8.788 5.902 9.46 5.568C9.995 5.302 7.09 4.802 7.09 4.802C8.301 4.717 10.273 4.714 10.308 4.323C10.352 3.834 6.84 3.847 6.84 3.847C6.84 3.847 9.16 3.658 9.332 3.208C9.504 2.758 4.742 2.606 4.742 2.606C4.742 2.606 5.657 1.861 5.687 0.771002C5.687 0.768002 5.687 0.766002 5.687 0.763002C5.689 0.410002 5.207 0.291002 5.007 0.583002C4.199 1.756 1.88 2.792 1.88 2.792Z" fill="#FCC0BF"/>
</svg>
