<svg width="29" height="18" viewBox="0 0 29 18" fill="none" xmlns="http://www.w3.org/2000/svg">
<path fill-rule="evenodd" clip-rule="evenodd" d="M8.14899 0.987L9.81699 0.994C9.90899 0.995 9.98299 1.07 9.98299 1.161C9.98299 1.252 9.90799 1.327 9.81599 1.327H9.81499L8.14699 1.32C8.05499 1.32 7.98099 1.245 7.98099 1.153C7.98199 1.061 8.05599 0.987 8.14799 0.987H8.14899ZM13.152 1.008L11.484 1.001H11.483C11.391 1.001 11.317 1.075 11.316 1.167C11.316 1.259 11.39 1.334 11.482 1.334L13.15 1.341H13.151C13.243 1.341 13.318 1.267 13.318 1.175C13.318 1.083 13.244 1.008 13.152 1.008ZM14.82 1.015L16.487 1.022C16.579 1.022 16.654 1.097 16.654 1.189C16.653 1.281 16.579 1.355 16.487 1.355H16.486L14.818 1.348C14.726 1.348 14.652 1.273 14.652 1.181C14.653 1.09 14.727 1.015 14.819 1.015H14.82ZM19.822 1.036L18.154 1.029H18.153C18.061 1.029 17.987 1.103 17.986 1.195C17.985 1.287 18.06 1.362 18.152 1.362L19.82 1.369H19.821C19.913 1.369 19.987 1.294 19.988 1.203C19.989 1.111 19.914 1.036 19.822 1.036ZM21.489 1.042L23.157 1.049C23.249 1.05 23.324 1.125 23.323 1.216C23.322 1.308 23.248 1.382 23.156 1.382H23.155L21.487 1.375C21.395 1.375 21.32 1.3 21.321 1.208C21.322 1.116 21.396 1.042 21.488 1.042H21.489ZM26.492 1.063L24.824 1.056H24.823C24.731 1.056 24.657 1.13 24.656 1.222C24.655 1.314 24.73 1.389 24.822 1.389L26.49 1.396H26.491C26.583 1.396 26.657 1.322 26.658 1.23C26.659 1.139 26.585 1.064 26.492 1.063ZM27.993 1.237C27.993 1.145 28.068 1.071 28.16 1.071L28.615 1.072V1.406L28.159 1.404C28.067 1.404 27.992 1.329 27.993 1.237ZM6.65499 1.266C6.63699 1.176 6.54799 1.117 6.45899 1.135C5.90199 1.246 5.35699 1.421 4.83899 1.654C4.75499 1.692 4.71799 1.791 4.75599 1.875C4.78399 1.937 4.84399 1.973 4.90799 1.973C4.93099 1.973 4.95399 1.969 4.97599 1.959C5.47099 1.736 5.99199 1.569 6.52399 1.462C6.61399 1.444 6.67299 1.356 6.65499 1.266ZM3.37599 2.522C3.44899 2.466 3.55399 2.481 3.60899 2.554C3.66499 2.628 3.64999 2.733 3.57599 2.787C3.14299 3.114 2.74599 3.491 2.39499 3.906C2.36199 3.945 2.31499 3.965 2.26799 3.965C2.22999 3.965 2.19199 3.952 2.16099 3.926C2.08999 3.867 2.08199 3.761 2.14099 3.691C2.50799 3.257 2.92299 2.864 3.37599 2.522ZM1.41999 5.034C1.33799 4.992 1.23799 5.023 1.19499 5.105C0.933992 5.61 0.729992 6.145 0.587992 6.695C0.564992 6.784 0.618992 6.875 0.707992 6.898C0.721992 6.902 0.735992 6.904 0.749992 6.904C0.823992 6.904 0.891992 6.854 0.910992 6.779C1.04599 6.253 1.24199 5.742 1.49099 5.259C1.53399 5.177 1.50199 5.076 1.41999 5.034ZM0.680992 8.6V9.549C0.680992 9.712 0.686992 9.878 0.696992 10.038C0.703992 10.13 0.633992 10.21 0.541992 10.216H0.530992C0.443992 10.216 0.370992 10.148 0.364992 10.06C0.353992 9.891 0.347992 9.718 0.347992 9.547V8.599C0.347992 8.525 0.348992 8.451 0.350992 8.378C0.353992 8.286 0.429992 8.213 0.521992 8.216C0.613992 8.219 0.685992 8.296 0.683992 8.388C0.681992 8.459 0.680992 8.529 0.680992 8.6ZM1.62499 13.136C1.35699 12.663 1.14199 12.16 0.985992 11.641C0.958992 11.553 0.866992 11.503 0.777992 11.529C0.689992 11.556 0.639992 11.649 0.665992 11.737C0.828992 12.28 1.05299 12.806 1.33399 13.301C1.36499 13.355 1.42099 13.385 1.47899 13.385C1.50699 13.385 1.53499 13.378 1.56099 13.363C1.64199 13.317 1.66999 13.216 1.62499 13.136ZM2.57999 14.452C2.94599 14.853 3.35799 15.215 3.80299 15.525C3.87799 15.577 3.89699 15.681 3.84299 15.758C3.81099 15.804 3.75899 15.829 3.70599 15.829C3.67299 15.829 3.63999 15.82 3.61099 15.799C3.14599 15.474 2.71499 15.097 2.33299 14.677C2.27099 14.609 2.27599 14.503 2.34399 14.441C2.41299 14.379 2.51799 14.384 2.57999 14.452ZM6.79899 16.736C6.26299 16.65 5.73499 16.503 5.23199 16.3C5.14699 16.266 5.04999 16.307 5.01499 16.392C4.98099 16.477 5.02199 16.574 5.10699 16.609C5.63299 16.822 6.18499 16.976 6.74599 17.066C6.75499 17.067 6.76399 17.068 6.77299 17.068C6.85399 17.068 6.92399 17.01 6.93799 16.928C6.95199 16.836 6.89099 16.751 6.79899 16.736ZM8.43499 16.831L10.103 16.838C10.196 16.838 10.27 16.913 10.269 17.006C10.268 17.098 10.194 17.172 10.102 17.172H10.101L8.43299 17.165C8.34099 17.164 8.26599 17.089 8.26699 16.997C8.26799 16.905 8.34199 16.831 8.43399 16.831H8.43499ZM13.439 16.852L11.771 16.845H11.77C11.678 16.845 11.604 16.92 11.603 17.011C11.602 17.103 11.677 17.178 11.769 17.178L13.437 17.185H13.438C13.53 17.185 13.604 17.111 13.605 17.019C13.605 16.927 13.531 16.852 13.439 16.852ZM15.106 16.858L16.774 16.865C16.866 16.866 16.94 16.94 16.94 17.032C16.939 17.123 16.865 17.198 16.773 17.198H16.772L15.104 17.191C15.012 17.191 14.937 17.116 14.938 17.024C14.938 16.933 15.013 16.858 15.105 16.858H15.106ZM20.109 16.879L18.441 16.872H18.44C18.348 16.872 18.273 16.946 18.273 17.038C18.272 17.13 18.347 17.205 18.439 17.205L20.106 17.212H20.107C20.199 17.212 20.273 17.137 20.274 17.046C20.275 16.954 20.201 16.879 20.109 16.879ZM21.776 16.886L23.444 16.893C23.536 16.893 23.61 16.968 23.61 17.06C23.609 17.152 23.535 17.226 23.443 17.226H23.442L21.774 17.219C21.682 17.219 21.607 17.144 21.608 17.052C21.608 16.961 21.683 16.886 21.775 16.886H21.776ZM26.779 16.907L25.111 16.9H25.11C25.018 16.9 24.943 16.975 24.943 17.066C24.942 17.158 25.017 17.233 25.109 17.233L26.777 17.24H26.778C26.87 17.24 26.944 17.165 26.945 17.074C26.945 16.982 26.871 16.907 26.779 16.907ZM28.447 16.914C28.354 16.914 28.28 16.988 28.28 17.08C28.279 17.172 28.354 17.247 28.446 17.247L28.616 17.248V16.915L28.447 16.914Z" fill="white"/>
</svg>
