<svg width="16" height="29" viewBox="0 0 16 29" fill="none" xmlns="http://www.w3.org/2000/svg">
<path fill-rule="evenodd" clip-rule="evenodd" d="M15.439 16.889C14.566 15.022 12.764 14.111 11.021 13.38C10.8025 13.2887 10.5848 13.2 10.3699 13.1125L10.3697 13.1125C10.088 12.9977 9.81117 12.885 9.544 12.771V8.53299C10.455 8.84699 11.083 9.47499 11.49 10.573L15.728 8.09299C15.217 6.94099 14.526 6.01699 13.698 5.30799C12.541 4.31699 11.117 3.74299 9.544 3.54099V0.747986H7.347V3.47899C7.245 3.48899 7.145 3.49899 7.043 3.51299C4.678 3.81499 2.485 5.03399 1.497 7.23999C1.144 8.02599 0.943998 8.93699 0.943998 9.97599C0.943998 11.228 1.233 12.243 1.711 13.081C2.641 14.711 4.288 15.669 5.911 16.387C6.257 16.541 6.602 16.682 6.938 16.818C7.0015 16.8497 7.07288 16.8736 7.14406 16.8974L7.14409 16.8974C7.21414 16.9209 7.284 16.9442 7.346 16.975V21.307C5.934 21.056 5.023 20.177 4.364 18.671L0.0319977 21.182C0.520998 22.487 1.293 23.568 2.3 24.396C3.617 25.479 5.335 26.125 7.346 26.267V28.998H9.543V26.236C13.279 25.797 15.978 23.474 15.978 19.55C15.978 18.487 15.779 17.616 15.439 16.889ZM5.965 10.008C5.965 9.25399 6.435 8.65799 7.346 8.43799V11.733C6.435 11.213 6.085 10.778 5.992 10.304C5.973 10.208 5.965 10.11 5.965 10.008ZM9.543 17.887V21.245C10.61 20.962 10.956 20.272 10.956 19.614C10.956 19.562 10.954 19.512 10.95 19.463C10.892 18.767 10.423 18.326 9.543 17.887Z" fill="white"/>
</svg>
