<svg width="52" height="59" viewBox="0 0 52 59" fill="none" xmlns="http://www.w3.org/2000/svg">
<path fill-rule="evenodd" clip-rule="evenodd" d="M28.94 1.329L49.179 13.014C50.657 13.868 51.868 15.964 51.868 17.673V41.042C51.868 42.752 50.658 44.849 49.179 45.702L28.94 57.387C27.46 58.24 25.039 58.24 23.56 57.387L3.32 45.702C1.841 44.849 0.630005 42.752 0.630005 41.042V17.673C0.630005 15.964 1.841 13.868 3.32 13.014L23.56 1.329C25.039 0.474002 27.46 0.474002 28.94 1.329ZM18.783 29.14L32.282 45.54H38.341L28.124 33.38C33.671 32.408 36.491 28.062 36.491 23.486C36.491 18.354 32.976 13.175 25.95 13.175H15.181L19.897 17.891H25.95C29.88 17.891 31.82 20.712 31.82 23.487C31.82 26.306 29.88 29.126 25.95 29.126L18.783 29.14ZM18.783 29.14V18.843L14.159 14.219V31.347L18.783 36.031V29.14Z" fill="#FA7701"/>
</svg>
