<svg width="13" height="19" viewBox="0 0 13 19" fill="none" xmlns="http://www.w3.org/2000/svg">
<path fill-rule="evenodd" clip-rule="evenodd" d="M11.683 10.724C11.024 9.49101 9.66299 8.88901 8.34699 8.40601C8.17253 8.34207 7.9989 8.28022 7.82792 8.21931L7.82772 8.21924C7.62439 8.1468 7.4248 8.0757 7.232 8.00401V5.20401C7.92 5.41201 8.394 5.82601 8.70199 6.55201L11.902 4.91401C11.516 4.15301 10.994 3.54301 10.369 3.07401C9.495 2.41901 8.42 2.04001 7.233 1.90701V0.0620117H5.57399V1.86601C5.49699 1.87201 5.421 1.87901 5.345 1.88901C3.559 2.08801 1.90399 2.89401 1.15699 4.35101C0.889995 4.87001 0.738995 5.47201 0.738995 6.15901C0.738995 6.98601 0.957995 7.65701 1.31799 8.21101C2.01999 9.28801 3.263 9.92101 4.489 10.395C4.75 10.497 5.01099 10.59 5.265 10.68C5.31337 10.7014 5.3677 10.7173 5.42192 10.7332L5.42194 10.7333C5.47421 10.7486 5.52637 10.7639 5.57299 10.784V13.646C4.50699 13.48 3.81899 12.899 3.32199 11.904L0.0509949 13.563C0.420995 14.425 1.00299 15.14 1.76399 15.686C2.75799 16.401 4.05499 16.828 5.57399 16.922V18.726H7.233V16.901C10.054 16.611 12.092 15.076 12.092 12.484C12.09 11.78 11.939 11.204 11.683 10.724ZM4.52999 6.17801C4.52999 5.68001 4.88499 5.28601 5.573 5.14101V7.31801C4.88499 6.97401 4.621 6.68701 4.55099 6.37401C4.536 6.31001 4.52999 6.24501 4.52999 6.17801ZM7.23099 11.383V13.602C8.03699 13.415 8.29799 12.959 8.29799 12.524C8.29799 12.49 8.29599 12.457 8.29299 12.424C8.24999 11.964 7.89499 11.673 7.23099 11.383Z" fill="white"/>
</svg>
