<svg width="13" height="19" viewBox="0 0 13 19" fill="none" xmlns="http://www.w3.org/2000/svg">
<path fill-rule="evenodd" clip-rule="evenodd" d="M11.878 10.671C11.219 9.43797 9.858 8.83597 8.542 8.35297C8.36754 8.28903 8.19391 8.22718 8.02293 8.16627L8.02273 8.1662C7.8194 8.09376 7.61981 8.02266 7.427 7.95097V5.15097C8.115 5.35897 8.589 5.77297 8.897 6.49897L12.097 4.86097C11.711 4.09997 11.189 3.48997 10.564 3.02097C9.69 2.36597 8.615 1.98697 7.428 1.85397V0.00897217H5.769V1.81297C5.692 1.81897 5.616 1.82597 5.54 1.83597C3.754 2.03497 2.099 2.84097 1.352 4.29797C1.085 4.81697 0.934002 5.41897 0.934002 6.10597C0.934002 6.93297 1.153 7.60397 1.513 8.15797C2.215 9.23497 3.458 9.86797 4.684 10.342C4.945 10.444 5.206 10.537 5.46 10.627C5.50837 10.6484 5.56271 10.6643 5.61693 10.6802L5.61695 10.6802C5.66921 10.6955 5.72138 10.7108 5.768 10.731V13.593C4.702 13.427 4.014 12.846 3.517 11.851L0.246002 13.51C0.616002 14.372 1.198 15.087 1.959 15.633C2.953 16.348 4.25 16.775 5.769 16.869V18.673H7.428V16.848C10.249 16.558 12.287 15.023 12.287 12.431C12.286 11.727 12.135 11.152 11.878 10.671ZM4.725 6.12597C4.725 5.62797 5.08 5.23397 5.768 5.08897V7.26597C5.08 6.92197 4.816 6.63497 4.746 6.32197C4.732 6.25797 4.725 6.19297 4.725 6.12597ZM7.427 11.33V13.549C8.233 13.363 8.494 12.907 8.494 12.471C8.494 12.437 8.492 12.404 8.489 12.371C8.446 11.911 8.091 11.62 7.427 11.33Z" fill="white"/>
</svg>
