<svg width="14" height="25" viewBox="0 0 14 25" fill="none" xmlns="http://www.w3.org/2000/svg">
<path fill-rule="evenodd" clip-rule="evenodd" d="M7.98701 21.955V24.25H6.16102V21.981C3.21402 21.772 1.02301 20.26 0.0840149 17.756L3.68301 15.669C4.23101 16.921 4.98701 17.651 6.16102 17.86V14.261C6.10901 14.235 6.05027 14.2155 5.99152 14.196L5.9915 14.196C5.93275 14.1765 5.87401 14.157 5.82201 14.131C3.55301 13.218 0.840015 11.94 0.840015 8.44498C0.840015 5.05398 3.39601 3.30698 6.16102 3.04598V0.776978H7.98701V3.09798C10.23 3.38498 12.108 4.58498 13.125 6.87998L9.60402 8.93998C9.26502 8.02698 8.74301 7.50598 7.98701 7.24498V10.766C8.19927 10.8562 8.4186 10.9456 8.64184 11.0366L8.64192 11.0366C10.805 11.9179 13.334 12.9482 13.334 16.4C13.334 19.66 11.091 21.59 7.98701 21.955ZM6.16101 9.90498V7.16598C5.40501 7.34798 5.01301 7.84398 5.01301 8.46998C5.01401 8.96598 5.24801 9.38298 6.16101 9.90498ZM7.98701 15.018C8.77001 15.409 9.16101 15.8 9.16101 16.452C9.16101 16.999 8.87401 17.573 7.98701 17.809V15.018Z" fill="white"/>
</svg>
