<svg width="79" height="47" viewBox="0 0 79 47" fill="none" xmlns="http://www.w3.org/2000/svg">
<path fill-rule="evenodd" clip-rule="evenodd" d="M71.675 0.365982H73.34C73.433 0.365982 73.507 0.290982 73.507 0.198982C73.507 0.106982 73.432 0.0319824 73.34 0.0319824H71.675C71.583 0.0319824 71.508 0.106982 71.508 0.198982C71.508 0.290982 71.583 0.365982 71.675 0.365982ZM76.492 1.18198C76.457 1.18198 76.423 1.17098 76.393 1.14898C75.961 0.827982 75.478 0.601982 74.957 0.475982C74.867 0.453982 74.812 0.363982 74.834 0.274982C74.856 0.184982 74.946 0.129982 75.035 0.151982C75.6 0.287982 76.124 0.532982 76.592 0.880982C76.666 0.935982 76.681 1.03998 76.626 1.11398C76.594 1.15898 76.543 1.18198 76.492 1.18198ZM1.99901 1.58898C2.03201 1.62098 2.07301 1.63598 2.11501 1.63598C2.15901 1.63598 2.20301 1.61898 2.23501 1.58398C2.60901 1.19598 3.04801 0.892982 3.54101 0.682982C3.62601 0.646982 3.66501 0.548982 3.62901 0.463982C3.59301 0.378982 3.49501 0.339982 3.41001 0.375982C2.87601 0.603982 2.40001 0.932982 1.99501 1.35298C1.93101 1.41998 1.93301 1.52498 1.99901 1.58898ZM78.132 3.97598C78.049 3.97598 77.978 3.91498 77.967 3.82998C77.899 3.29798 77.726 2.79298 77.454 2.32998C77.407 2.25098 77.434 2.14798 77.513 2.10198C77.592 2.05498 77.695 2.08198 77.741 2.16098C78.036 2.66298 78.224 3.21098 78.298 3.78798C78.31 3.87898 78.245 3.96298 78.154 3.97498C78.1499 3.97498 78.146 3.97525 78.1423 3.97551C78.1388 3.97575 78.1354 3.97598 78.132 3.97598ZM0.790009 4.49498C0.790009 4.58698 0.865009 4.66198 0.957009 4.66198C1.04901 4.66198 1.12401 4.58798 1.12201 4.49498V4.34198C1.12201 3.85298 1.21001 3.37498 1.38301 2.92298C1.41601 2.83698 1.37301 2.74098 1.28701 2.70798C1.20101 2.67498 1.10501 2.71798 1.07201 2.80398C0.885009 3.29498 0.790009 3.81198 0.790009 4.34198V4.49498ZM78.166 7.30298C78.074 7.30298 77.999 7.22798 77.999 7.13598V5.47098C77.999 5.37898 78.074 5.30398 78.166 5.30398C78.258 5.30398 78.333 5.37898 78.333 5.47098V7.13598C78.333 7.22898 78.258 7.30298 78.166 7.30298ZM0.790009 7.82398C0.790009 7.91598 0.865009 7.99098 0.957009 7.99098C1.04901 7.99098 1.12401 7.91698 1.12401 7.82398V6.15998C1.12401 6.06798 1.04901 5.99298 0.957009 5.99298C0.865009 5.99298 0.790009 6.06798 0.790009 6.15998V7.82398ZM78.166 10.632C78.074 10.632 77.999 10.557 77.999 10.465V8.80098C77.999 8.70898 78.074 8.63398 78.166 8.63398C78.258 8.63398 78.333 8.70898 78.333 8.80098V10.465C78.333 10.558 78.258 10.632 78.166 10.632ZM0.790009 11.153C0.790009 11.245 0.865009 11.32 0.957009 11.32C1.04901 11.32 1.12401 11.246 1.12401 11.153V9.48798C1.12401 9.39598 1.04901 9.32098 0.957009 9.32098C0.865009 9.32098 0.790009 9.39598 0.790009 9.48798V11.153ZM78.166 13.961C78.074 13.961 77.999 13.886 77.999 13.794V12.129C77.999 12.037 78.074 11.962 78.166 11.962C78.258 11.962 78.333 12.037 78.333 12.129V13.794C78.333 13.887 78.258 13.961 78.166 13.961ZM0.790009 14.482C0.790009 14.574 0.865009 14.649 0.957009 14.649C1.04901 14.649 1.12401 14.575 1.12401 14.482V12.817C1.12401 12.725 1.04901 12.65 0.957009 12.65C0.865009 12.65 0.790009 12.725 0.790009 12.817V14.482ZM78.166 17.29C78.074 17.29 77.999 17.215 77.999 17.123V15.458C77.999 15.366 78.074 15.291 78.166 15.291C78.258 15.291 78.333 15.366 78.333 15.458V17.123C78.333 17.216 78.258 17.29 78.166 17.29ZM0.790009 17.811C0.790009 17.903 0.865009 17.978 0.957009 17.978C1.04901 17.978 1.12401 17.904 1.12401 17.811V16.146C1.12401 16.054 1.04901 15.979 0.957009 15.979C0.865009 15.979 0.790009 16.054 0.790009 16.146V17.811ZM78.166 20.619C78.074 20.619 77.999 20.544 77.999 20.452V18.787C77.999 18.695 78.074 18.62 78.166 18.62C78.258 18.62 78.333 18.695 78.333 18.787V20.452C78.333 20.545 78.258 20.619 78.166 20.619ZM0.790009 21.14C0.790009 21.232 0.865009 21.307 0.957009 21.307C1.04901 21.307 1.12401 21.233 1.12401 21.14V19.476C1.12401 19.384 1.04901 19.309 0.957009 19.309C0.865009 19.309 0.790009 19.384 0.790009 19.476V21.14ZM78.166 23.948C78.074 23.948 77.999 23.873 77.999 23.781V22.117C77.999 22.025 78.074 21.95 78.166 21.95C78.258 21.95 78.333 22.025 78.333 22.117V23.781C78.333 23.874 78.258 23.948 78.166 23.948ZM0.790009 24.469C0.790009 24.561 0.865009 24.636 0.957009 24.636C1.04901 24.636 1.12401 24.562 1.12401 24.469V22.805C1.12401 22.713 1.04901 22.638 0.957009 22.638C0.865009 22.638 0.790009 22.713 0.790009 22.805V24.469ZM78.166 27.277C78.074 27.277 77.999 27.202 77.999 27.11V25.445C77.999 25.353 78.074 25.278 78.166 25.278C78.258 25.278 78.333 25.353 78.333 25.445V27.11C78.333 27.203 78.258 27.277 78.166 27.277ZM0.790009 27.799C0.790009 27.891 0.865009 27.966 0.957009 27.966C1.04901 27.966 1.12401 27.891 1.12401 27.799V26.134C1.12401 26.042 1.04901 25.967 0.957009 25.967C0.865009 25.967 0.790009 26.042 0.790009 26.134V27.799ZM78.166 30.607C78.074 30.607 77.999 30.532 77.999 30.44V28.775C77.999 28.683 78.074 28.608 78.166 28.608C78.258 28.608 78.333 28.683 78.333 28.775V30.44C78.333 30.532 78.258 30.607 78.166 30.607ZM0.790009 31.128C0.790009 31.22 0.865009 31.295 0.957009 31.295C1.04901 31.295 1.12401 31.22 1.12401 31.128V29.463C1.12401 29.371 1.04901 29.296 0.957009 29.296C0.865009 29.296 0.790009 29.371 0.790009 29.463V31.128ZM78.166 33.936C78.074 33.936 77.999 33.861 77.999 33.769V32.105C77.999 32.013 78.074 31.938 78.166 31.938C78.258 31.938 78.333 32.013 78.333 32.105V33.769C78.333 33.861 78.258 33.936 78.166 33.936ZM0.790009 34.457C0.790009 34.549 0.865009 34.624 0.957009 34.624C1.04901 34.624 1.12401 34.549 1.12401 34.457V32.793C1.12401 32.701 1.04901 32.626 0.957009 32.626C0.865009 32.626 0.790009 32.701 0.790009 32.793V34.457ZM78.166 37.265C78.074 37.265 77.999 37.19 77.999 37.098V35.433C77.999 35.341 78.074 35.266 78.166 35.266C78.258 35.266 78.333 35.341 78.333 35.433V37.098C78.333 37.19 78.258 37.265 78.166 37.265ZM0.790009 37.786C0.790009 37.878 0.865009 37.953 0.957009 37.953C1.04901 37.953 1.12401 37.878 1.12401 37.786V36.121C1.12401 36.029 1.04901 35.954 0.957009 35.954C0.865009 35.954 0.790009 36.029 0.790009 36.121V37.786ZM78.166 40.594C78.074 40.594 77.999 40.519 77.999 40.427V38.762C77.999 38.67 78.074 38.595 78.166 38.595C78.258 38.595 78.333 38.67 78.333 38.762V40.427C78.333 40.519 78.258 40.594 78.166 40.594ZM0.790009 41.115C0.790009 41.207 0.865009 41.282 0.957009 41.282C1.04901 41.282 1.12401 41.207 1.12401 41.115V39.45C1.12401 39.358 1.04901 39.283 0.957009 39.283C0.865009 39.283 0.790009 39.358 0.790009 39.45V41.115ZM77.896 43.89C77.876 43.89 77.856 43.886 77.837 43.879C77.751 43.846 77.708 43.75 77.74 43.664C77.912 43.213 77.999 42.737 77.999 42.25V42.092C77.999 42 78.074 41.925 78.166 41.925C78.258 41.925 78.333 42 78.333 42.092V42.25C78.333 42.778 78.239 43.294 78.052 43.783C78.027 43.849 77.963 43.89 77.896 43.89ZM1.38001 44.427C1.41101 44.48 1.46701 44.509 1.52401 44.509C1.55301 44.509 1.58201 44.502 1.60801 44.486C1.68701 44.44 1.71401 44.337 1.66701 44.258C1.39501 43.795 1.22301 43.29 1.15501 42.757C1.14401 42.666 1.06001 42.601 0.969009 42.613C0.878009 42.624 0.813009 42.708 0.825009 42.799C0.899009 43.377 1.08501 43.925 1.38001 44.427ZM75.652 46.226C75.587 46.226 75.526 46.188 75.499 46.125C75.463 46.04 75.502 45.942 75.587 45.906C76.08 45.695 76.519 45.391 76.892 45.003C76.956 44.937 77.061 44.935 77.128 44.998C77.194 45.062 77.197 45.167 77.133 45.234C76.729 45.655 76.253 45.984 75.719 46.212C75.696 46.222 75.674 46.226 75.652 46.226ZM4.08401 46.438C4.09701 46.441 4.11001 46.443 4.12301 46.443C4.19901 46.443 4.26701 46.391 4.28501 46.315C4.30701 46.226 4.25201 46.136 4.16201 46.114C3.64101 45.989 3.15801 45.762 2.72601 45.44C2.65301 45.385 2.54801 45.4 2.49301 45.474C2.43801 45.547 2.45301 45.652 2.52701 45.707C2.99501 46.056 3.51901 46.302 4.08401 46.438ZM7.44301 46.558H5.77901C5.68701 46.558 5.61201 46.483 5.61201 46.391C5.61201 46.299 5.68701 46.224 5.77901 46.224H7.44301C7.53501 46.224 7.61001 46.299 7.61001 46.391C7.61001 46.484 7.53501 46.558 7.44301 46.558ZM9.10701 46.558H10.772C10.864 46.558 10.939 46.484 10.939 46.391C10.939 46.299 10.864 46.224 10.772 46.224H9.10701C9.01501 46.224 8.94001 46.299 8.94001 46.391C8.94001 46.483 9.01501 46.558 9.10701 46.558ZM14.101 46.558H12.436C12.344 46.558 12.269 46.483 12.269 46.391C12.269 46.299 12.344 46.224 12.436 46.224H14.101C14.193 46.224 14.268 46.299 14.268 46.391C14.268 46.484 14.193 46.558 14.101 46.558ZM15.766 46.558H17.43C17.522 46.558 17.597 46.484 17.597 46.391C17.597 46.299 17.522 46.224 17.43 46.224H15.766C15.674 46.224 15.599 46.299 15.599 46.391C15.599 46.483 15.674 46.558 15.766 46.558ZM20.759 46.558H19.094C19.002 46.558 18.927 46.483 18.927 46.391C18.927 46.299 19.002 46.224 19.094 46.224H20.759C20.851 46.224 20.926 46.299 20.926 46.391C20.926 46.484 20.851 46.558 20.759 46.558ZM22.423 46.558H24.088C24.18 46.558 24.255 46.484 24.255 46.391C24.255 46.299 24.18 46.224 24.088 46.224H22.423C22.331 46.224 22.256 46.299 22.256 46.391C22.256 46.483 22.331 46.558 22.423 46.558ZM27.417 46.558H25.752C25.66 46.558 25.585 46.483 25.585 46.391C25.585 46.299 25.66 46.224 25.752 46.224H27.417C27.509 46.224 27.584 46.299 27.584 46.391C27.584 46.484 27.509 46.558 27.417 46.558ZM29.082 46.558H30.746C30.838 46.558 30.913 46.484 30.913 46.391C30.913 46.299 30.838 46.224 30.746 46.224H29.082C28.99 46.224 28.915 46.299 28.915 46.391C28.915 46.483 28.99 46.558 29.082 46.558ZM34.075 46.558H32.41C32.318 46.558 32.243 46.483 32.243 46.391C32.243 46.299 32.318 46.224 32.41 46.224H34.075C34.167 46.224 34.242 46.299 34.242 46.391C34.242 46.484 34.167 46.558 34.075 46.558ZM35.74 46.558H37.404C37.496 46.558 37.571 46.484 37.572 46.391C37.572 46.299 37.497 46.224 37.405 46.224H35.74C35.648 46.224 35.573 46.299 35.573 46.391C35.573 46.483 35.648 46.558 35.74 46.558ZM40.733 46.558H39.069C38.977 46.558 38.902 46.483 38.902 46.391C38.902 46.299 38.977 46.224 39.069 46.224H40.733C40.825 46.224 40.9 46.299 40.9 46.391C40.9 46.484 40.825 46.558 40.733 46.558ZM42.398 46.558H44.062C44.154 46.558 44.229 46.484 44.229 46.391C44.229 46.299 44.154 46.224 44.062 46.224H42.398C42.306 46.224 42.231 46.299 42.231 46.391C42.231 46.483 42.306 46.558 42.398 46.558ZM47.391 46.558H45.726C45.634 46.558 45.559 46.483 45.559 46.391C45.559 46.299 45.634 46.224 45.726 46.224H47.391C47.483 46.224 47.558 46.299 47.558 46.391C47.558 46.484 47.483 46.558 47.391 46.558ZM49.055 46.558H50.72C50.812 46.558 50.887 46.484 50.887 46.391C50.887 46.299 50.812 46.224 50.72 46.224H49.055C48.963 46.224 48.888 46.299 48.888 46.391C48.888 46.483 48.963 46.558 49.055 46.558ZM54.049 46.558H52.385C52.293 46.558 52.218 46.483 52.218 46.391C52.218 46.299 52.293 46.224 52.385 46.224H54.049C54.141 46.224 54.216 46.299 54.216 46.391C54.216 46.484 54.142 46.558 54.049 46.558ZM55.713 46.558H57.378C57.471 46.558 57.545 46.484 57.545 46.391C57.545 46.299 57.47 46.224 57.378 46.224H55.713C55.621 46.224 55.546 46.299 55.546 46.391C55.546 46.483 55.621 46.558 55.713 46.558ZM60.708 46.558H59.043C58.951 46.558 58.876 46.483 58.876 46.391C58.876 46.299 58.951 46.224 59.043 46.224H60.708C60.8 46.224 60.875 46.299 60.875 46.391C60.874 46.484 60.8 46.558 60.708 46.558ZM62.372 46.558H64.037C64.129 46.558 64.203 46.484 64.204 46.391C64.204 46.299 64.129 46.224 64.037 46.224H62.372C62.28 46.224 62.205 46.299 62.205 46.391C62.205 46.483 62.28 46.558 62.372 46.558ZM67.366 46.558H65.702C65.61 46.558 65.535 46.483 65.535 46.391C65.535 46.299 65.61 46.224 65.702 46.224H67.366C67.458 46.224 67.533 46.299 67.533 46.391C67.532 46.484 67.458 46.558 67.366 46.558ZM69.03 46.558H70.695C70.787 46.558 70.861 46.484 70.862 46.391C70.862 46.299 70.787 46.224 70.695 46.224H69.03C68.938 46.224 68.863 46.299 68.863 46.391C68.863 46.483 68.938 46.558 69.03 46.558ZM72.359 46.558H74.033C74.125 46.558 74.199 46.484 74.2 46.391C74.2 46.299 74.125 46.224 74.033 46.224H72.359C72.267 46.224 72.192 46.299 72.192 46.391C72.192 46.483 72.267 46.558 72.359 46.558ZM70.011 0.365982H68.346C68.254 0.365982 68.179 0.290982 68.179 0.198982C68.179 0.106982 68.254 0.0319824 68.346 0.0319824H70.011C70.103 0.0319824 70.178 0.106982 70.178 0.198982C70.178 0.290982 70.104 0.365982 70.011 0.365982ZM65.017 0.365982H66.682C66.774 0.365982 66.849 0.290982 66.849 0.198982C66.849 0.106982 66.774 0.0319824 66.682 0.0319824H65.017C64.925 0.0319824 64.85 0.106982 64.85 0.198982C64.85 0.290982 64.925 0.365982 65.017 0.365982ZM63.353 0.365982H61.688C61.596 0.365982 61.521 0.290982 61.521 0.198982C61.521 0.106982 61.596 0.0319824 61.688 0.0319824H63.353C63.445 0.0319824 63.52 0.106982 63.52 0.198982C63.52 0.290982 63.445 0.365982 63.353 0.365982ZM58.36 0.365982H60.024C60.116 0.365982 60.191 0.290982 60.191 0.198982C60.191 0.106982 60.116 0.0319824 60.024 0.0319824H58.36C58.268 0.0319824 58.193 0.106982 58.193 0.198982C58.193 0.290982 58.268 0.365982 58.36 0.365982ZM56.695 0.365982H55.03C54.938 0.365982 54.863 0.290982 54.863 0.198982C54.863 0.106982 54.938 0.0319824 55.03 0.0319824H56.695C56.787 0.0319824 56.862 0.106982 56.862 0.198982C56.862 0.290982 56.787 0.365982 56.695 0.365982ZM51.701 0.365982H53.366C53.458 0.365982 53.533 0.290982 53.533 0.198982C53.533 0.106982 53.458 0.0319824 53.366 0.0319824H51.701C51.609 0.0319824 51.534 0.106982 51.534 0.198982C51.534 0.290982 51.609 0.365982 51.701 0.365982ZM50.037 0.365982H48.373C48.281 0.365982 48.206 0.290982 48.206 0.198982C48.206 0.106982 48.281 0.0319824 48.373 0.0319824H50.037C50.129 0.0319824 50.204 0.106982 50.204 0.198982C50.204 0.290982 50.129 0.365982 50.037 0.365982ZM45.044 0.365982H46.708C46.8 0.365982 46.875 0.290982 46.875 0.198982C46.875 0.106982 46.8 0.0319824 46.708 0.0319824H45.044C44.952 0.0319824 44.877 0.106982 44.877 0.198982C44.877 0.290982 44.952 0.365982 45.044 0.365982ZM43.379 0.365982H41.714C41.622 0.365982 41.547 0.290982 41.547 0.198982C41.547 0.106982 41.622 0.0319824 41.714 0.0319824H43.379C43.471 0.0319824 43.546 0.106982 43.546 0.198982C43.546 0.290982 43.471 0.365982 43.379 0.365982ZM38.385 0.365982H40.05C40.142 0.365982 40.217 0.290982 40.217 0.198982C40.217 0.106982 40.142 0.0319824 40.05 0.0319824H38.385C38.293 0.0319824 38.218 0.106982 38.218 0.198982C38.218 0.290982 38.293 0.365982 38.385 0.365982ZM36.721 0.365982H35.057C34.965 0.365982 34.89 0.290982 34.89 0.198982C34.89 0.106982 34.965 0.0319824 35.057 0.0319824H36.721C36.813 0.0319824 36.888 0.106982 36.888 0.198982C36.888 0.290982 36.813 0.365982 36.721 0.365982ZM31.727 0.365982H33.392C33.484 0.365982 33.559 0.290982 33.559 0.198982C33.559 0.106982 33.484 0.0319824 33.392 0.0319824H31.727C31.635 0.0319824 31.56 0.106982 31.56 0.198982C31.56 0.290982 31.635 0.365982 31.727 0.365982ZM30.063 0.365982H28.398C28.306 0.365982 28.231 0.290982 28.231 0.198982C28.231 0.106982 28.306 0.0319824 28.398 0.0319824H30.063C30.155 0.0319824 30.23 0.106982 30.23 0.198982C30.23 0.290982 30.155 0.365982 30.063 0.365982ZM25.069 0.365982H26.734C26.826 0.365982 26.901 0.290982 26.901 0.198982C26.901 0.106982 26.826 0.0319824 26.734 0.0319824H25.069C24.977 0.0319824 24.902 0.106982 24.902 0.198982C24.902 0.290982 24.977 0.365982 25.069 0.365982ZM23.405 0.365982H21.74C21.648 0.365982 21.573 0.290982 21.573 0.198982C21.573 0.106982 21.648 0.0319824 21.74 0.0319824H23.404C23.496 0.0319824 23.571 0.106982 23.571 0.198982C23.571 0.290982 23.497 0.365982 23.405 0.365982ZM18.411 0.365982H20.076C20.168 0.365982 20.243 0.290982 20.243 0.198982C20.243 0.106982 20.168 0.0319824 20.076 0.0319824H18.411C18.319 0.0319824 18.244 0.106982 18.244 0.198982C18.244 0.290982 18.319 0.365982 18.411 0.365982ZM16.747 0.365982H15.082C14.99 0.365982 14.915 0.290982 14.915 0.198982C14.915 0.106982 14.99 0.0319824 15.082 0.0319824H16.747C16.839 0.0319824 16.914 0.106982 16.914 0.198982C16.914 0.290982 16.839 0.365982 16.747 0.365982ZM11.754 0.365982H13.418C13.51 0.365982 13.585 0.290982 13.585 0.198982C13.585 0.106982 13.51 0.0319824 13.418 0.0319824H11.754C11.662 0.0319824 11.587 0.106982 11.587 0.198982C11.587 0.290982 11.662 0.365982 11.754 0.365982ZM10.089 0.365982H8.42501C8.33301 0.365982 8.25801 0.290982 8.25801 0.198982C8.25801 0.106982 8.33301 0.0319824 8.42501 0.0319824H10.089C10.181 0.0319824 10.256 0.106982 10.256 0.198982C10.256 0.290982 10.181 0.365982 10.089 0.365982ZM5.10001 0.365982H6.76001C6.85201 0.365982 6.92701 0.290982 6.92701 0.198982C6.92701 0.106982 6.85201 0.0319824 6.76001 0.0319824H5.09501C5.00301 0.0319824 4.93101 0.106982 4.93101 0.198982C4.93101 0.290982 5.00801 0.365982 5.10001 0.365982Z" fill="white"/>
</svg>
